<svg xmlns="http://www.w3.org/2000/svg" width="1280" height="1280"><path d="M492 622c.68.4 1.36.8 2.06 1.21 19.84 11.92 31 31.83 38.94 52.79.4 1.01.8 2.02 1.21 3.07 8.12 22.22 10.46 46.88 11.58 70.37.05 2.55.05 2.55 1.21 4.56.1 1.75.13 3.5.13 5.24 0 1.1.01 2.19.01 3.32 0 1.78 0 1.78-.01 3.6 0 1.82 0 1.82.01 3.67 0 2.57-.01 5.14-.01 7.71 0 3.94 0 7.89.01 11.83 0 2.49-.01 4.98-.01 7.47 0 1.19.01 2.38.01 3.6 0 1.09-.01 2.19-.01 3.32v2.92C547 809 547 809 546 811c-.04 2-.04 4 0 6l4 1c.09-.87.09-.87.19-1.75 1.4-3.88 4.37-5.5 7.93-7.36 7.18-3.35 13.69-4.04 21.52-4.02 1.22 0 1.22 0 2.46-.01 1.7 0 3.4.01 5.11.01 2.61.01 5.23 0 7.84-.01 1.66 0 3.31.01 4.97.01.78 0 1.57-.01 2.38-.01 5.49.03 5.49.03 6.6 1.14.09 1.53.11 3.06.1 4.59-.01 1.47-.01 1.47-.01 2.97l-.03 3.24c0 1.65 0 1.65-.01 3.33-.02 4.72-.04 9.44-.07 14.15-.02 3.45-.03 6.89-.04 10.33l-.03 3.17c-.64 12.45-.64 12.45 2.09 24.22.04 2 .04 4 0 6l2-1v-9h1c1.63-40.99 2.15-81.93 2.07-122.95-.01-6.24-.02-12.47-.02-18.71-.01-12.11-.03-24.23-.05-36.34l-2.23-.02c-6.91-.08-13.83-.17-20.74-.27-3.56-.05-7.12-.09-10.67-.13-4.09-.05-8.17-.11-12.26-.17l-3.88-.03-3.58-.06c-1.04-.01-2.08-.03-3.16-.04C557 689 557 689 555 687c-.25-2.24-.25-2.24-.26-5.06-.01-1.06-.01-2.11-.02-3.2.01-1.71.01-1.71.01-3.46v-3.54c0-2.48 0-4.95.01-7.43.01-3.79 0-7.59-.01-11.39v-7.2c0-1.14 0-2.29-.01-3.46l.02-3.2c0-.93 0-1.86.01-2.82C555 634 555 634 557 632c2.71-.23 2.71-.23 6.1-.2 1.21.01 2.42.02 3.67.02l3.85.06c1.28 0 2.56.01 3.88.02 3.17.03 6.33.06 9.5.1-.01-.85-.02-1.71-.04-2.59l-.02-3.35c-.01-1.1-.03-2.2-.04-3.34.1-2.72.1-2.72 1.1-3.72 1.61-.1 3.23-.13 4.85-.13 1.58 0 1.58 0 3.18-.01 1.75.01 1.75.01 3.53.01h3.68c3.35-.01 6.69-.01 10.04 0 3.49 0 6.99 0 10.48-.01 5.87 0 11.74 0 17.61.01 6.79.01 13.59 0 20.38 0 5.82-.01 11.65-.01 17.47 0 3.49 0 6.97 0 10.45-.01 3.88 0 7.76.01 11.64.01 1.74 0 1.74 0 3.52-.01 1.58.01 1.58.01 3.19.01h2.78c2.2.13 2.2.13 4.2 1.13l1 47c2.02-2.8 2.02-2.8 2.95-5.41 5.8-14.32 17.72-23.58 31.51-29.55.84-.34 1.68-.69 2.54-1.04 1.31-.55 1.31-.55 2.65-1.12 2.35-.88 2.35-.88 5.1-1.13 4.04-.93 6.6-2.85 9.97-5.2 17.21-11.73 41.85-11.96 61.72-8.36 17.36 4.2 31.56 16.73 40.89 31.68 4.35 8.15 7.58 16.23 9.79 25.19.24.88.48 1.76.73 2.66 5.25 20.92 5.61 42.75 5.66 64.19l.06 7.69c.04 5.98.07 11.96.09 17.94.03 6.82.07 13.65.12 20.47.09 14 .16 27.99.22 41.99 1.97 0 3.86-1.84 5.44-2.88 4.4-2.68 8.15-3.99 13.24-4.7 4.71-.85 7.78-2.63 11.32-5.8 7.07-5.67 16.08-7.79 25-8.62-3.68-5.25-7.71-9.87-12.12-14.5-17.49-18.5-30.9-40.29-38.88-64.5-.34-.88-.68-1.76-1.03-2.66-1.3-4.48-1.7-8.89-2.09-13.53l-.26-2.84c-1.74-20.57 1.04-39.93 14.24-56.55 8.22-9.3 17.04-14.31 28.14-19.42.75-.4 1.5-.8 2.28-1.21 1.72-.79 1.72-.79 4.91-1.04 4.45-.88 6.92-2.63 10.58-5.2 12.36-8.61 26.18-9.92 40.85-9.99 1.81-.01 1.81-.01 3.65-.03 21.55.21 37.84 7.76 53.23 22.47 4.38 4.6 7.57 9.38 10.5 15 .79 1.46.79 1.46 1.59 2.95 7.59 14.5 11.09 30.64 7.35 46.93-2.21 6.94-6.22 12.07-12 16.43-6.61 3.27-14.59 5.69-21.94 5.69-.23.58-.45 1.15-.69 1.75-3.49 5.98-9.97 8.3-16.31 10.25-3.03.54-5.92.8-9 1 3.68 4.51 7.6 8.68 11.74 12.77l1.6 1.58c2.2 2.18 4.41 4.35 6.63 6.52 28.43 27.9 43.77 58.9 44.27 99.12.07 24.64-4.24 48.09-21.24 67.01-.83.92-1.65 1.84-2.5 2.79-9.64 10.18-19.92 16.25-33.29 20.01-3.44 1.29-4.71 2.59-7.21 5.2-2.29 1.31-4.5 2.46-6.88 3.56-.58.29-1.16.58-1.75.88-10.93 5.14-22.83 6.1-34.75 6-1.26-.01-2.53-.02-3.83-.02-22.87-.4-41.8-8.97-57.79-25.42-5.02-6.05-9.09-12.16-13-19l-1 24-28 1v13h-66c-1.96-3.92-1.6-8.63-2-13h-23v13c-8.44.05-16.88.08-25.32.1-3.92.01-7.84.03-11.76.05-3.78.02-7.56.03-11.34.04-1.44 0-2.89.01-4.33.02-2.02.02-4.04.02-6.06.02-1.72 0-1.72 0-3.48.01C702 955 702 955 700 953c-.24-2.82-.24-2.82-.23-6.47v-2.01c0-2.2.02-4.39.03-6.59.01-1.52.01-3.04.01-4.57.01-4 .03-8.01.05-12.02.02-4.09.03-8.18.04-12.27.02-8.02.06-16.05.1-24.07-2.17 3.25-3 6.01-4.12 9.75-5.43 16.92-14.86 31.16-28.88 42.25-.58.46-1.15.92-1.75 1.39-5.2 3.66-11.16 5.48-17.17 7.38-4.45 1.45-7.54 3.07-11.08 6.23-17.05 10.91-39.66 11.69-59.12 7.75-5.24-1.4-10.12-3.15-14.88-5.75-.84-.45-1.67-.89-2.54-1.36-16.36-9.53-27.15-24.27-33.56-41.88-1.1-3.56-1.1-3.56-3.9-5.76-.08.87-.17 1.74-.25 2.64-2.69 12.12-17.25 24.27-27.04 30.83-4.98 2.81-10.33 4.64-15.71 6.53-4.09 1.51-7.62 3.37-11.19 5.88-16.56 11.34-38.05 12.77-57.45 9.47-18.12-4.42-33.07-15.95-43.36-31.35-.71-1.04-1.41-2.08-2.14-3.15-7.62-11.72-14.49-25.8-15.86-39.85h-2c-2.35-9.31-4.58-18.37-5-28h-1c-.49 26.78-.05 52.45 8.5 78.14.5 1.86.5 1.86.5 4.86l-31 1 3 8c.19 3 .19 3 0 5-5.8.1-11.6.17-17.4.22-1.96.02-3.93.05-5.9.08-2.85.05-5.69.07-8.54.09l-2.62.06c-10.81.01-19.58-4.59-27.19-12.07-6.18-6.79-9.12-13.47-11.35-22.38l-1 20-28 1v13h-66c-1.28-2.56-1.13-4.36-1.13-7.22 0-1.12-.01-2.23-.01-3.38 0-1.23 0-2.47.01-3.74-.01-1.3-.01-2.6-.01-3.95-.01-3.62-.01-7.25-.01-10.88 0-3.91 0-7.82-.01-11.73 0-7.66-.01-15.32-.01-22.98v-18.68c-.01-17.63-.02-35.26-.02-52.89v-5.77c.01-15.44 0-30.89-.02-46.33-.01-15.84-.02-31.68-.02-47.52 0-8.9 0-17.8-.01-26.7-.01-7.58-.01-15.15-.01-22.73.01-3.87.01-7.74 0-11.61-.01-4.18 0-8.37 0-12.55 0-1.24-.01-2.47-.01-3.74 0-1.12.01-2.23.01-3.38v-2.93C154 634 154 634 156 632c2.71-.23 2.71-.23 6.1-.2l3.67.02 3.85.06c1.28 0 2.56.01 3.88.02 3.17.03 6.33.06 9.5.1v-13c8.89-.05 17.79-.08 26.68-.1 4.14-.01 8.27-.03 12.4-.05 45.87-.25 45.87-.25 63.98 4.46.87.22 1.74.44 2.63.66 19.52 5.06 36.42 15.08 46.9 32.71 8.06 14.87 9.77 31.92 5.72 48.26-3.97 13-10.87 24.19-21.6 32.76-2.92 2.08-2.92 2.08-3.71 5.3.72.24 1.45.48 2.19.72 8.96 4.08 15.06 13.5 18.81 22.28v2l2-1v-12h1v-11h1l-.06-3.75c-.05-2.97.33-5.38 1.06-8.25.29-1.56.57-3.12.83-4.68 4.79-27.62 4.79-27.62 8.22-34.41 1.06-1.9 1.06-1.9 1.34-4.18.85-3.8 2.57-6.98 4.36-10.42.73-1.43 1.47-2.86 2.2-4.29.35-.69.71-1.38 1.07-2.1 1.24-2.43 2.38-4.89 3.54-7.36 2.52-5.04 5.86-9.23 9.44-13.56.72-.99 1.44-1.98 2.19-3 8.45-9.91 22.04-17.5 34.81-20l3 1v-2c20.66-15.62 57.04-20.4 79-5Zm-139 66 1 2Zm87 8c-2.24 12.58-4.31 25.1-5.4 37.84-.28 3.22-.57 6.08-1.6 9.16-4.93 40.4-4.93 40.4 1 79 .23 1.81.42 3.62.58 5.44C436 852.88 436 852.88 443 877h3l-1-5h2l-.06-2.31C447 867 447 867 448 864c-.39-2.14-.39-2.14-1-4h2l-.06-3.44C449 853 449 853 450 852c.05-1.5.04-3 0-4.5s-.05-3 0-4.5l1-1c.07-2.53.09-5.03.06-7.56 0-.71-.01-1.42-.01-2.16-.01-1.76-.03-3.52-.05-5.28h1v-30h1c.07-3.34.07-5.8-1-9-.07-2.05-.08-4.11-.06-6.16.01-1.21.01-2.41.02-3.65l.04-3.81c.03-2.5.05-4.99.06-7.48.01-1.11.03-2.22.04-3.36.19-2.48.19-2.48-1.1-3.54.01-1.67.06-3.33.12-5 .07-6.97-.66-13.77-1.5-20.69-.12-1.05-.25-2.11-.38-3.2-1.21-11.01-1.21-11.01-4.24-21.61-1.35-3.38-1.84-6.81-2.44-10.39-.18-.7-.37-1.39-.56-2.11l-2-1Zm-190 7c-1.1 3.29-.8 4.71 0 8h1v-8h-1Zm0 107c-1.07 5.58-.83 10.39 0 16h1v-16h-1Zm717 32c-.45 22.57-.45 22.57 6 44h3c-.22-14.22-.22-14.22-3-28l-2-1 1-3c-.61-1.69-1.29-3.35-2-5-.69-2.33-1.36-4.66-2-7h-1ZM466 947v1h5v-1h-5ZM340.781 355.04c7.9 4.84 12.96 12.95 17.22 20.96l1.21-1.21c4.43-4.12 8.77-6.7 14.79-7.79.99.5.99.5 2 1v-2c1.05.06 2.1.12 3.19.19 5.27-.26 7.54-1.85 11.12-5.63 6.26-5.97 12.19-7.21 20.75-7.17 7.85.36 11.98 3.65 17.31 8.99 4.57 7.38 5.53 15.14 6.63 23.62.37-.87.37-.87.75-1.75 4.33-7.81 13.05-12.53 21.25-15.25 1.91-.35 3.83-.67 5.75-.94 4.81-.72 6.9-2.13 10.32-5.47 11.32-9.33 28.05-9.49 41.93-8.59 9.54 1.06 17.58 3.72 25 10v2c.57.23 1.14.45 1.73.68 2.92 1.7 4.47 3.78 6.52 6.45 1.06 1.36 1.06 1.36 2.14 2.75.53.7 1.06 1.4 1.61 2.12.57-.8.57-.8 1.14-1.61 4.73-6.06 9.37-8.73 16.86-10.39 1.91-.11 3.83-.2 5.75-.25 3.27-.18 4.73-.3 7.21-2.48 1.15-1.43 2.28-2.87 3.39-4.32 3.65-4.31 7.82-4.79 13.25-5.26 10.14-.33 14.84.87 22.21 7.75 2.94 2.9 3.52 4.4 5.19 8.56h30v-12c6.94-.02 13.88-.04 20.82-.05 2.37-.01 4.73-.02 7.09-.02 3.39-.02 6.78-.02 10.17-.03 1.07 0 2.13-.01 3.22-.01h2.97c.87 0 1.74-.01 2.63-.01 2.1.12 2.1.12 4.1 1.12.6 3.65.74 7.3 1 11h13v-12c6.8-.02 13.6-.04 20.4-.05 2.31-.01 4.63-.02 6.94-.02 3.32-.02 6.64-.02 9.96-.03 1.56 0 1.56 0 3.15-.01h2.92c.84 0 1.69-.01 2.57-.01 2.06.12 2.06.12 4.06 1.12.6 3.65.74 7.3 1 11h13v-12c6.94-.02 13.88-.04 20.82-.05 2.37-.01 4.73-.02 7.09-.02 3.39-.02 6.78-.02 10.17-.03 1.07 0 2.13-.01 3.22-.01h2.97c.87 0 1.74-.01 2.63-.01 2.1.12 2.1.12 4.1 1.12.6 3.65.74 7.3 1 11h13v-12c14.06-.02 28.13-.04 42.19-.05 6.53-.01 13.06-.01 19.59-.02 6.3-.02 12.59-.02 18.89-.02 2.41-.01 4.81-.01 7.22-.01 3.36-.01 6.72-.01 10.08-.01 1.01-.01 2.01-.01 3.05-.01h5.17c1.81.12 1.81.12 2.81 1.12.07 1.85.08 3.71.06 5.56l-.03 3.07c-.01 1.17-.01 1.17-.03 2.37h10l1-12c6.94-.02 13.88-.04 20.82-.05 2.37-.01 4.73-.02 7.09-.02 3.39-.02 6.78-.02 10.17-.03 1.07 0 2.13-.01 3.22-.01h2.97c.87 0 1.74-.01 2.63-.01 2.1.12 2.1.12 4.1 1.12v186l45 1 2 1v42c-12.94.44-12.94.44-17.02.57-1.06.04-2.11.08-3.2.11l-3.28.12c-2.44-.08-2.44-.08-3.5 1.2-.24 2.02-.41 4.04-.56 6.06-.09 1.11-.17 2.21-.26 3.35-.06.86-.12 1.71-.18 2.59-12.5.02-25 .04-37.5.05l-17.41.03c-5.6.01-11.19.01-16.79.02-2.14 0-4.28 0-6.42.01h-8.96c-.89.01-1.78.01-2.7.02-6.11-.02-6.11-.02-7.22-1.13-.16-1.56-.25-3.12-.32-4.69l-.12-2.86-.12-3.01c-.07-1.5-.07-1.5-.13-3.02-.11-2.47-.21-4.95-.31-7.42-3.12 1.5-5.55 3.21-8.25 5.38-5.11 3.68-10.02 5.02-16.13 6.11-5.02.99-7.27 2.73-10.62 6.51-2.03 1.51-2.03 1.51-3.94 2.69-.63.39-1.25.79-1.9 1.2-5.25 2.7-10.38 3.55-16.22 3.86l-2.26.12c-14.11.58-26.43-2.38-37.29-11.61-9.43-8.93-14.08-19.23-18.39-31.26-.45.73-.9 1.45-1.36 2.2-5.66 9.05-10.46 15.19-19.64 20.8l-2.39 1.56c-2.93 1.62-5.69 2.41-8.92 3.25-5.18 1.53-8.74 3.31-12.86 6.74-10.86 8.63-25.91 9.36-39.19 8.14-11.34-1.37-18.81-4.6-27.64-11.69-.85-.58-1.69-1.15-2.56-1.75-3.85-3.55-6.56-7.9-9.44-12.25-.74 1.33-.74 1.33-1.5 2.69-2.78 4.04-5.9 6.54-10.5 8.31-2.54.33-5.08.6-7.63.81-5.14.39-5.14.39-9.39 2.94a90.31 90.31 0 0 0-2.69 4.28c-2.29 3.5-5.36 4.82-9.29 5.97-8.63 1.59-16.32 1.39-24.19-2.62-4.79-4.05-8.28-8.25-9.81-14.38l-28 1v12c-2.42 1.21-3.99 1.14-6.69 1.16-1.47.02-1.47.02-2.96.03-1.58.01-1.58.01-3.19.01-1.09.01-2.17.02-3.28.02-2.28.01-4.57.02-6.86.02-3.51.01-7.02.04-10.53.07-2.21.01-4.43.02-6.65.02-1.05.01-2.11.02-3.2.04-.97-.01-1.94-.01-2.95-.01-1.29 0-1.29 0-2.6.01-.69-.12-1.38-.24-2.09-.37-3.05-4.57-2.13-8.57-2-14l-12 1v12c-2.4 1.2-3.91 1.14-6.59 1.16l-2.88.03c-1.03.01-2.06.01-3.12.01-1.06.01-2.11.02-3.2.02-2.23.01-4.47.02-6.71.02-3.42.01-6.85.04-10.27.07-2.17.01-4.34.02-6.51.02-1.03.01-2.05.02-3.11.04-.96-.01-1.91-.01-2.9-.01-1.26 0-1.26 0-2.54.01-2.68-.46-3.57-1.21-5.17-3.37-.4-3.7-.13-7.26 0-11l-11 1 .12 5.38c.07 3.02.07 3.02-.12 5.62-2.49 2.49-3.26 2.26-6.69 2.28-.98.01-1.95.01-2.96.02h-3.19c-1.09.01-2.17.01-3.28.01-2.28.01-4.57.01-6.86.01-3.51-.01-7.02.02-10.53.04-2.21 0-4.43.01-6.65 0l-3.2.03c-.97 0-1.94-.01-2.95-.02-.86 0-1.72 0-2.6.01l-2.09-.38c-2.28-3.42-2.22-4.68-2.13-8.69l.06-3.01c.03-1.14.03-1.14.07-2.3-1.81.14-3.63.29-5.44.44-1.01.08-2.02.16-3.06.24-2.44.05-2.44.05-3.5 1.32-.24 2.02-.41 4.04-.56 6.06-.09 1.11-.17 2.21-.26 3.35-.06.86-.12 1.71-.18 2.59-6.96.03-13.92.04-20.88.06-2.37 0-4.74.01-7.11.02-3.4.01-6.8.01-10.19.02-1.07 0-2.14.01-3.24.01h-2.97c-.87.01-1.74.01-2.63.01-1.98-.12-1.98-.12-2.98-1.12-.24-2.02-.41-4.04-.56-6.06-.09-1.11-.17-2.21-.26-3.35-.06-.85-.12-1.71-.18-2.59-4.48-.03-8.96-.05-13.44-.06l-3.88-.03c-1.21 0-2.43 0-3.68-.01-1.12 0-2.25-.01-3.41-.01-2.52-.18-2.52-.18-3.59 1.11-.24 2.02-.41 4.04-.56 6.06-.09 1.11-.17 2.21-.26 3.35-.06.86-.12 1.71-.18 2.59-6.96.03-13.92.04-20.88.06-2.37 0-4.74.01-7.11.02-3.4.01-6.8.01-10.19.02-1.07 0-2.14.01-3.24.01h-2.97c-1.3.01-1.3.01-2.63.01-1.98-.12-1.98-.12-2.98-1.12-.16-1.56-.25-3.12-.32-4.69l-.12-2.86-.12-3.01c-.05-1-.09-2-.13-3.02-.11-2.47-.21-4.95-.31-7.42-3.12 1.5-5.6 3.23-8.31 5.38-5.52 3.97-10.82 5.24-17.37 6.6-3.63 1.12-4.84 2.24-7.32 5.02-1.59 1.1-3.22 2.14-4.88 3.13-.82.49-1.64.99-2.49 1.5-11.23 5.83-26.6 5.6-38.63 2.37-14.99-5.73-24.81-15.22-31.55-29.74-3.39-7.85-5.18-16.21-6.99-24.55-.31-1.73-.31-1.73-1.46-2.71-.04-2.33-.04-4.67 0-7h-1c-.96-9.25-1.15-18.45-1.15-27.74 0-1.55 0-3.09-.01-4.64-.01-4.16-.01-8.31-.01-12.47v-7.8c-.01-9.08-.02-18.15-.02-27.22 0-8.46-.01-16.92-.02-25.37-.02-7.28-.02-14.55-.02-21.82 0-4.34 0-8.68-.01-13.02-.01-4.07-.01-8.14-.01-12.21.01-1.49 0-2.99 0-4.48-.01-2.04-.01-4.07 0-6.11v-3.45c.25-2.67.25-2.67 2.25-4.67 2.7-.23 2.7-.23 6.1-.19l3.67.02c1.27.01 2.54.03 3.85.05 1.28 0 2.56.01 3.88.02 3.17.03 6.33.06 9.5.1v-12c14.05-.02 28.09-.04 42.14-.05 6.52-.01 13.04-.01 19.57-.02 6.28-.02 12.57-.02 18.86-.02 2.41-.01 4.81-.01 7.22-.01 3.35-.01 6.71-.01 10.07-.01 1-.01 2-.01 3.04-.01h5.17c1.93.12 1.93.12 3.93 1.12.59 2.65.74 5.29 1 8l2-1c1.77.11 3.54.24 5.31.38 3.96.18 3.96.18 7.17-1.76.74-1.24 1.47-2.48 2.19-3.73 6.11-8.7 20.92-9.28 30.11-5.85ZM263.001 401l2 1v13h-31l-1-2v22c3.33 1.67 7.06 1.12 10.73 1.1.86 0 1.72 0 2.61-.01 2.76 0 5.52-.01 8.28-.03 1.87 0 3.74-.01 5.61-.01 4.59-.01 9.18-.03 13.77-.05v-35h-11Zm672 0-3 3v11h-30l-1-2c-.03 3.65-.05 7.29-.06 10.94l-.03 3.15c0 .99-.01 1.98-.01 3 0 .92-.01 1.83-.01 2.78-.13 2.11-.13 2.11 1.11 3.13 2.93.1 5.84.14 8.78.13 1.32.01 1.32.01 2.67.01 1.87 0 3.74 0 5.6-.01 2.87 0 5.74 0 8.6.01 1.81 0 3.63 0 5.44-.01.86.01 1.72.01 2.61.01 4.28.11 4.28.11 8.3-1.14v-33l-9-1Zm-660 2v32h1v-32h-1Zm-26 73c.99.5.99.5 2 1l-.04 2.15c-.01.92-.01 1.84-.02 2.79-.02.91-.03 1.83-.04 2.78-.16 2.25-.16 2.25 1.1 3.28 1.63.09 3.27.11 4.91.1 1.48-.01 1.48-.01 3-.01 1.56-.01 1.56-.01 3.15-.03 1.05 0 2.09-.01 3.17-.01 2.59-.01 5.18-.03 7.77-.05v-12h-25Zm670 0 1 12 4.74-.03 6.13-.03c1.55-.01 1.55-.01 3.13-.03.99 0 1.97 0 2.99-.01.91 0 1.82-.01 2.76-.01 2.25.11 2.25.11 4.25 1.11.05-1.79.09-3.58.12-5.37.03-1 .05-2 .07-3.03.08-2.76.08-2.76-2.19-4.6-2.43-.28-2.43-.28-5.23-.19-1.03 0-2.06.01-3.12.02-1.62.02-1.62.02-3.28.05l-3.29.02c-2.7.03-5.39.06-8.08.1Zm-1 1v10h1v-10h-1Zm-643 1v11h1v-11h-1Zm-42 10v12c1.34.15 2.68.29 4.06.44 3.99.44 7.96.97 11.94 1.56.03-1.62.05-3.25.06-4.87.01-.91.02-1.81.04-2.75.06-2.4.06-2.4-1.1-4.38h-14l-1-2Zm668 0v12c2.96 1.48 5.83 1.35 9.12 1.56 1.29.09 2.57.17 3.89.26.98.06 1.97.12 2.99.18.03-1.44.05-2.87.06-4.31.01-.8.02-1.6.04-2.43 0-2.43 0-2.43-1.1-5.26h-14l-1-2Zm-116 104 4 1Z" fill="#93EFB2"/><path d="M340.781 355.04c7.9 4.84 12.96 12.95 17.22 20.96l1.21-1.21c4.43-4.12 8.77-6.7 14.79-7.79.99.5.99.5 2 1v-2c1.05.06 2.1.12 3.19.19 5.27-.26 7.54-1.85 11.12-5.63 6.26-5.97 12.19-7.21 20.75-7.17 7.85.36 11.98 3.65 17.31 8.99 4.57 7.38 5.53 15.14 6.63 23.62.37-.87.37-.87.75-1.75 4.33-7.81 13.05-12.53 21.25-15.25 1.91-.35 3.83-.67 5.75-.94 4.81-.72 6.9-2.13 10.32-5.47 11.32-9.33 28.05-9.49 41.93-8.59 9.54 1.06 17.58 3.72 25 10v2c.58.24 1.16.47 1.76.71 9.31 5.36 13.4 18.49 16.24 28.29 3.49 13.48 4.15 26.7 4.11 40.54v5c0 4.5 0 9-.01 13.5-.01 4.71-.01 9.42-.01 14.14 0 8.91-.01 17.82-.02 26.74-.01 10.15-.02 20.3-.02 30.46-.01 20.87-.03 41.75-.05 62.62l-13 1v11h-1v-11l-12 1v12c-2.4 1.2-3.91 1.14-6.59 1.16l-2.88.03c-1.03.01-2.06.01-3.12.01-1.06.01-2.11.02-3.2.02-2.23.01-4.47.02-6.71.02-3.42.01-6.85.04-10.27.07-2.17.01-4.34.02-6.51.02-1.03.01-2.05.02-3.11.04-.96-.01-1.91-.01-2.9-.01-1.26 0-1.26 0-2.54.01-2.68-.46-3.57-1.21-5.17-3.37-.4-3.7-.13-7.26 0-11l-11 1 .12 5.38c.07 3.02.07 3.02-.12 5.62-2.49 2.49-3.26 2.26-6.69 2.28-.98.01-1.95.01-2.96.02h-3.19c-1.09.01-2.17.01-3.28.01-2.28.01-4.57.01-6.86.01-3.51-.01-7.02.02-10.53.04-2.21 0-4.43.01-6.65 0l-3.2.03c-.97 0-1.94-.01-2.95-.02-.86 0-1.72 0-2.6.01l-2.09-.38c-2.28-3.42-2.22-4.68-2.13-8.69l.06-3.01c.03-1.14.03-1.14.07-2.3-1.81.14-3.63.29-5.44.44-1.01.08-2.02.16-3.06.24-2.44.05-2.44.05-3.5 1.32-.24 2.02-.41 4.04-.56 6.06-.09 1.11-.17 2.21-.26 3.35-.06.86-.12 1.71-.18 2.59-6.96.03-13.92.04-20.88.06-2.37 0-4.74.01-7.11.02-3.4.01-6.8.01-10.19.02-1.07 0-2.14.01-3.24.01h-2.97c-.87.01-1.74.01-2.63.01-1.98-.12-1.98-.12-2.98-1.12-.24-2.02-.41-4.04-.56-6.06-.09-1.11-.17-2.21-.26-3.35-.06-.85-.12-1.71-.18-2.59-4.48-.03-8.96-.05-13.44-.06l-3.88-.03c-1.21 0-2.43 0-3.68-.01-1.12 0-2.25-.01-3.41-.01-2.52-.18-2.52-.18-3.59 1.11-.24 2.02-.41 4.04-.56 6.06-.09 1.11-.17 2.21-.26 3.35-.06.86-.12 1.71-.18 2.59-6.96.03-13.92.04-20.88.06-2.37 0-4.74.01-7.11.02-3.4.01-6.8.01-10.19.02-1.07 0-2.14.01-3.24.01h-2.97c-1.3.01-1.3.01-2.63.01-1.98-.12-1.98-.12-2.98-1.12-.16-1.56-.25-3.12-.32-4.69l-.12-2.86-.12-3.01c-.05-1-.09-2-.13-3.02-.11-2.47-.21-4.95-.31-7.42-3.12 1.5-5.6 3.23-8.31 5.38-5.52 3.97-10.82 5.24-17.37 6.6-3.63 1.12-4.84 2.24-7.32 5.02-1.59 1.1-3.22 2.14-4.88 3.13-.82.49-1.64.99-2.49 1.5-11.23 5.83-26.6 5.6-38.63 2.37-14.99-5.73-24.81-15.22-31.55-29.74-3.39-7.85-5.18-16.21-6.99-24.55-.31-1.73-.31-1.73-1.46-2.71-.04-2.33-.04-4.67 0-7h-1c-.96-9.25-1.15-18.45-1.15-27.74 0-1.55 0-3.09-.01-4.64-.01-4.16-.01-8.31-.01-12.47v-7.8c-.01-9.08-.02-18.15-.02-27.22 0-8.46-.01-16.92-.02-25.37-.02-7.28-.02-14.55-.02-21.82 0-4.34 0-8.68-.01-13.02-.01-4.07-.01-8.14-.01-12.21.01-1.49 0-2.99 0-4.48-.01-2.04-.01-4.07 0-6.11v-3.45c.25-2.67.25-2.67 2.25-4.67 2.7-.23 2.7-.23 6.1-.19l3.67.02c1.27.01 2.54.03 3.85.05 1.28 0 2.56.01 3.88.02 3.17.03 6.33.06 9.5.1v-12c14.05-.02 28.09-.04 42.14-.05 6.52-.01 13.04-.01 19.57-.02 6.28-.02 12.57-.02 18.86-.02 2.41-.01 4.81-.01 7.22-.01 3.35-.01 6.71-.01 10.07-.01 1-.01 2-.01 3.04-.01h5.17c1.93.12 1.93.12 3.93 1.12.59 2.65.74 5.29 1 8l2-1c1.77.11 3.54.24 5.31.38 3.96.18 3.96.18 7.17-1.76.74-1.24 1.47-2.48 2.19-3.73 6.11-8.7 20.92-9.28 30.11-5.85ZM263.001 401l2 1v13h-31l-1-2v22c3.33 1.67 7.06 1.12 10.73 1.1.86 0 1.72 0 2.61-.01 2.76 0 5.52-.01 8.28-.03 1.87 0 3.74-.01 5.61-.01 4.59-.01 9.18-.03 13.77-.05v-35h-11Zm12 2v32h1v-32h-1Zm-26 73c.99.5.99.5 2 1l-.04 2.15c-.01.92-.01 1.84-.02 2.79-.02.91-.03 1.83-.04 2.78-.16 2.25-.16 2.25 1.1 3.28 1.63.09 3.27.11 4.91.1 1.48-.01 1.48-.01 3-.01 1.56-.01 1.56-.01 3.15-.03 1.05 0 2.09-.01 3.17-.01 2.59-.01 5.18-.03 7.77-.05v-12h-25Zm26 2v11h1v-11h-1Zm-42 10v12c1.34.15 2.68.29 4.06.44 3.99.44 7.96.97 11.94 1.56.03-1.62.05-3.25.06-4.87.01-.91.02-1.81.04-2.75.06-2.4.06-2.4-1.1-4.38h-14l-1-2Z" fill="#93EFB2"/><path d="M499 634c19.25 15.4 28.94 43.85 34 67 .24 1.03.24 1.03.48 2.08 4.65 20.57 6.63 42.57 6.72 63.63.01 1.08.02 2.16.02 3.27.02 3.46.03 6.93.03 10.4v3.58c-.01 18.22-.62 36-3.25 54.04-.22 1.59-.22 1.59-.44 3.21-4.32 31.19-13.72 65.77-38.97 86.8-11.83 8.66-25.11 13.59-39.78 13.49-1-.01-2.01-.01-3.05-.02-8.72-.2-15.78-1.81-23.76-5.48-1.14-.52-2.28-1.04-3.45-1.57-7.58-3.78-13.62-8.42-19.55-14.43l-1.89-1.86C391.08 902.3 384.8 878.72 380 858c-.18-.77-.36-1.53-.54-2.32-1.4-6.16-2.38-12.3-3.19-18.56-.26-2.03-.53-4.06-.79-6.08-1.81-14.88-1.82-29.78-1.8-44.75.01-2.93 0-5.87-.02-8.8-.11-18.7.66-36.94 3.34-55.49.12-.86.24-1.72.36-2.61 4.49-32.25 14.77-65.24 40.5-86.8 24.79-18.38 56.83-15.97 81.14 1.41Zm-59 62c-2.24 12.58-4.31 25.1-5.4 37.84-.28 3.22-.57 6.08-1.6 9.16-4.93 40.4-4.93 40.4 1 79 .23 1.81.42 3.62.58 5.44C436 852.88 436 852.88 443 877h3l-1-5h2l-.06-2.31C447 867 447 867 448 864c-.39-2.14-.39-2.14-1-4h2l-.06-3.44C449 853 449 853 450 852c.05-1.5.04-3 0-4.5s-.05-3 0-4.5l1-1c.07-2.53.09-5.03.06-7.56 0-.71-.01-1.42-.01-2.16-.01-1.76-.03-3.52-.05-5.28h1v-30h1c.07-3.34.07-5.8-1-9-.07-2.05-.08-4.11-.06-6.16.01-1.21.01-2.41.02-3.65l.04-3.81c.03-2.5.05-4.99.06-7.48.01-1.11.03-2.22.04-3.36.19-2.48.19-2.48-1.1-3.54.01-1.67.06-3.33.12-5 .07-6.97-.66-13.77-1.5-20.69-.12-1.05-.25-2.11-.38-3.2-1.21-11.01-1.21-11.01-4.24-21.61-1.35-3.38-1.84-6.81-2.44-10.39-.18-.7-.37-1.39-.56-2.11l-2-1ZM851 358c14.06-.02 28.13-.04 42.19-.05 6.53-.01 13.06-.01 19.59-.03 6.3-.01 12.59-.01 18.89-.01 2.41-.01 4.82-.01 7.22-.02h10.08c1.01-.01 2.01-.01 3.05-.01h5.17C959 358 959 358 960 359c.07 1.85.08 3.71.06 5.56-.01 1.01-.02 2.03-.02 3.07-.02.78-.03 1.56-.04 2.37h10l1-12c6.94-.02 13.88-.04 20.83-.05l7.08-.03c3.39-.01 6.79-.01 10.18-.02 1.06 0 2.12-.01 3.21-.01h2.97c.87-.01 1.74-.01 2.63-.01 2.1.12 2.1.12 4.1 1.12v186c22.28.5 22.28.5 45 1l2 1v42c-12.94.44-12.94.44-17.02.57-1.06.04-2.11.07-3.19.11-1.09.04-2.17.08-3.29.11-2.44-.07-2.44-.07-3.5 1.21-.23 2.02-.41 4.04-.56 6.06-.09 1.11-.17 2.21-.26 3.35-.06.85-.12 1.71-.18 2.59-12.5.02-25 .04-37.5.05-5.8.01-11.61.01-17.41.03-5.59.01-11.19.01-16.79.01-2.14.01-4.28.01-6.42.02h-8.95c-.9.01-1.79.01-2.71.01-6.11-.01-6.11-.01-7.22-1.12-.16-1.56-.25-3.13-.32-4.69l-.12-2.86-.12-3.01c-.05-1-.09-2-.13-3.02-.11-2.48-.21-4.95-.31-7.42-3.16 1.52-5.68 3.28-8.44 5.44-11.06 7.71-23.71 7.26-36.56 5.56-3.56-.64-6.69-1.57-10-3-.88-.38-1.75-.76-2.66-1.14-14.52-7.08-22.79-18.98-28.03-33.82-5.78-17.87-6.42-36.94-6.53-55.57-.01-1.39-.02-2.78-.04-4.17-.03-3.73-.05-7.47-.08-11.2l-.06-9.4c-.06-7.4-.11-14.8-.16-22.19-.05-7.6-.1-15.2-.16-22.8l-.15-19.68c-.02-3.9-.05-7.8-.08-11.71-.03-3.67-.05-7.33-.07-11-.02-1.97-.03-3.94-.05-5.91-.04-7.52.3-14.92 1.07-22.41Zm84 43-3 3v11h-30l-1-2c-.03 3.65-.05 7.29-.06 10.94l-.03 3.15c0 .99 0 1.98-.01 3 0 .92-.01 1.83-.01 2.78-.13 2.11-.13 2.11 1.11 3.13 2.93.1 5.84.14 8.78.13 1.32 0 1.32 0 2.67.01 1.87 0 3.74-.01 5.61-.01 2.86 0 5.73 0 8.59.01 1.82 0 3.63-.01 5.44-.01.86 0 1.72.01 2.61.01 4.29.11 4.29.11 8.3-1.14v-33l-9-1Zm-16 75 1 12c1.56-.01 3.13-.02 4.74-.04 2.05 0 4.09-.01 6.14-.02 1.54-.02 1.54-.02 3.12-.03.99 0 1.98 0 2.99-.01.91 0 1.82-.01 2.76-.01C942 488 942 488 944 489c.05-1.79.09-3.58.12-5.38.03-.99.05-1.99.08-3.02.07-2.76.07-2.76-2.2-4.6-2.43-.28-2.43-.28-5.23-.2-1.03.01-2.06.02-3.12.02l-3.27.06-3.3.02c-2.69.03-5.39.06-8.08.1Zm-1 1v10h1v-10h-1Zm-17 11v12c2.96 1.48 5.84 1.35 9.12 1.56 1.29.09 2.57.17 3.89.26.99.06 1.97.12 2.99.18.03-1.44.05-2.87.06-4.31.01-.8.03-1.6.04-2.43 0-2.43 0-2.43-1.1-5.26h-14l-1-2ZM849.727 632.105c14.13 11.77 20.81 30.03 24.96 47.39.2.83.41 1.65.61 2.5 3.9 17.31 4 35.21 3.93 52.86v6.6c0 5.9-.01 11.8-.02 17.7-.02 6.2-.02 12.39-.02 18.59-.01 11.69-.02 23.39-.04 35.09-.02 9.35-.03 18.69-.04 28.04v2c0 3.32 0 6.63-.01 9.95-.02 27.39-.05 54.78-.1 82.17-7.08.06-14.16.09-21.25.11-2.41.01-4.82.03-7.23.05-3.46.02-6.92.03-10.38.04l-3.29.03h-3.03c-.88.01-1.77.01-2.68.02-2.14-.25-2.14-.25-4.14-2.25-.26-2.43-.26-2.43-.27-5.54l-.03-3.58v-3.94l-.03-4.13c-.01-2.97-.03-5.94-.03-8.91-.01-4.7-.04-9.39-.07-14.08-.04-7.42-.07-14.84-.1-22.26-.05-13.29-.11-26.58-.18-39.88-.03-4.67-.05-9.34-.06-14.01-.01-2.9-.03-5.79-.04-8.69-.01-2-.02-3.99-.02-5.99-.01-1.18-.01-2.35-.02-3.56-.01-1.03-.01-2.06-.01-3.12.12-2.27.12-2.27-1.14-3.31-17.82-.49-17.82-.49-36-1l-1 144h-51c-1.65-3.3-1.14-6.99-1.13-10.63 0-.9 0-1.8-.01-2.74v-9.15c0-2.17-.01-4.35-.01-6.53-.01-5.94-.01-11.88-.01-17.82 0-3.71-.01-7.43-.01-11.14-.01-12.3-.01-24.6-.01-36.9v-4.02c0-10.06-.01-20.13-.02-30.19-.02-11.7-.03-23.4-.03-35.09 0-6.19 0-12.38-.01-18.57-.01-5.83-.01-11.66 0-17.5 0-2.12 0-4.25-.01-6.38-.04-16.09.8-31.67 4.5-47.4.22-.92.43-1.84.66-2.8 4.74-19.57 12.89-37.42 30-49.12a83.39 83.39 0 0 1 8.09-4.02c.72-.31 1.43-.62 2.16-.94 21-8.05 50.39-5.57 68.57 8.05ZM197.038 625.839l3.93-.03c1.43 0 2.87-.01 4.3-.01 1.09-.01 1.09-.01 2.2-.01 3.85-.02 7.71-.02 11.56-.03 3.16 0 6.31-.02 9.47-.04 33.75-.24 33.75-.24 50.5 3.28.78.16 1.56.32 2.37.48 13.61 2.79 25.63 6.73 36.63 15.52.63.49 1.25.98 1.9 1.48 9.3 8.19 15.35 22.43 16.26 34.61.96 18.46-3.71 32.16-15.79 46.4-4.99 5.3-10.6 9.71-17.37 12.51h-2v2c.63.22 1.26.44 1.91.67 13.41 4.96 21.6 13.75 28.09 26.33 4.13 9.34 6.15 17.59 6.17 27.83.01 1.11.01 1.11.01 2.23.01 2.4.01 4.8.01 7.19v2.51c0 10.22-.26 20.31-1.19 30.49-2.71 30.67-2.5 61.84 5.33 91.74.22 1 .44 1.99.67 3.01-2.72 2.72-10.72 1.29-14.37 1.31l-3.76.09c-11.48.08-22.14-2.52-30.87-10.4-17.74-21.47-12.16-58.12-10.21-83.55.86-11.26 1.49-22.5 1.62-33.79.02-1.41.05-2.82.08-4.23.28-11.48-1.46-21.76-8.8-30.93-9.27-9.51-19.75-11.34-32.69-13.5l-1 176h-50c-2-2-2-2-2.25-4.21v-2.81c0-1.07-.01-2.14-.01-3.24 0-1.19.01-2.37.01-3.59v-3.79c-.01-3.48 0-6.96 0-10.45.01-3.75.01-7.5 0-11.25 0-7.35 0-14.71.01-22.06.01-8.55.01-17.11.01-25.66 0-15.26.01-30.52.03-45.77.01-14.82.02-29.64.02-44.47v-5.52c0-16.85 0-33.7.01-50.56v-17.9c.01-7.27.01-14.54.02-21.81 0-3.71.01-7.43.01-11.14-.01-4.01 0-8.03.01-12.05 0-1.18-.01-2.37-.01-3.59.01-1.6.01-1.6.01-3.23 0-.93 0-1.86.01-2.81.26-4.38 3.47-3.23 7.16-3.25Zm52.96 77.16c-1.09 3.29-.8 4.71 0 8h1v-8h-1Z" fill="#66A47B"/><path d="M722 358c6.8-.02 13.6-.04 20.4-.05l6.94-.03c3.32-.01 6.64-.01 9.96-.02 1.56-.01 1.56-.01 3.16-.01h2.91c.84-.01 1.69-.01 2.57-.01C770 358 770 358 772 359c.6 3.65.75 7.3 1 11h13v-12c6.94-.02 13.88-.04 20.83-.05l7.08-.03c3.39-.01 6.79-.01 10.18-.02 1.06 0 2.12-.01 3.21-.01h2.97c.87-.01 1.74-.01 2.63-.01 2.1.12 2.1.12 4.1 1.12.6 3.65.75 7.3 1 11h12c1.3 2.61 1.13 4.52 1.14 7.45.02 1.73.02 1.73.03 3.5v3.87c.01 1.36.02 2.71.02 4.06.02 2.93.03 5.85.04 8.77l.06 13.93c.08 13.21.14 26.42.19 39.63.03 7.29.06 14.58.1 21.87.03 3.85.04 7.69.05 11.54-1.27 49.54-1.27 49.54 20.12 92.34 10.96 9.96 21.68 13.72 36.25 15.04v2h5c-7.52 8.23-15.87 12.15-27.06 12.75l-2.26.12c-14.11.58-26.43-2.38-37.29-11.61-9.43-8.93-14.08-19.23-18.39-31.26-.45.72-.89 1.45-1.36 2.2-5.66 9.05-10.45 15.18-19.64 20.8-.79.52-1.58 1.04-2.4 1.57-12.73 7-28.89 4.94-42.6 2.43-11.86-3.45-23.61-12.88-29.81-23.54-4.13-8.53-6.42-17.47-7.94-26.77-.17-1.05-.17-1.05-.35-2.11-2.71-18.42-2.12-37.31-2.24-55.89l-.06-9.37c-.06-7.37-.11-14.74-.16-22.11-.05-7.57-.1-15.14-.16-22.71l-.15-19.63c-.02-3.89-.05-7.78-.08-11.67-.03-3.65-.05-7.3-.07-10.96-.02-1.96-.03-3.91-.05-5.87-.04-7.51.31-14.9 1.07-22.37ZM183 358c14.05-.02 28.09-.04 42.14-.05 6.52-.01 13.04-.01 19.57-.03 6.29-.01 12.58-.01 18.86-.01 2.41-.01 4.81-.01 7.22-.02h10.07c1-.01 2-.01 3.04-.01h5.17C291 358 291 358 293 359l-1 42c-4.27.17-8.54.33-12.94.5-1.35.05-2.69.1-4.08.16l-3.19.12c-1.09.04-2.17.09-3.29.13-2.5.09-2.5.09-3.5.09v13h-31l-1 20c4.6-.03 4.6-.03 9.3-.07 2.97-.02 5.94-.03 8.91-.04 2.06-.01 4.13-.02 6.19-.04 2.97-.03 5.93-.04 8.9-.05l2.8-.03h2.61c.76 0 1.52-.01 2.3-.01C276 435 276 435 279 437c.27 2.98.35 5.75.29 8.73 0 .86-.01 1.72-.01 2.61-.02 2.76-.05 5.52-.09 8.28-.02 1.87-.03 3.74-.04 5.61-.04 4.59-.09 9.18-.15 13.77-3.57.82-6.86 1.12-10.52 1.1-1.02-.01-2.04-.01-3.1-.01l-3.19-.03c-1.08 0-2.15-.01-3.26-.01-2.64-.01-5.29-.03-7.93-.05.5 4.95.5 4.95 1 10h23v2c.58.03 1.16.05 1.76.08 5.46.39 9.01 1.17 13.24 4.92 8.57 11.52 6.79 25.53 4.81 39.12-2.09 13.27-5.71 25.37-12.81 36.88-.62 1.15-.62 1.15-1.26 2.32-5.48 9.42-14.17 15.92-24.53 18.96-1.48.39-2.97.76-4.47 1.1-4.48 1.05-6.73 2.18-9.74 5.62a80.59 80.59 0 0 1-4.88 3.12c-.82.5-1.64 1-2.49 1.51-11.22 5.83-26.6 5.6-38.63 2.37-14.98-5.73-24.81-15.22-31.55-29.74-3.39-7.85-5.18-16.21-6.99-24.55-.31-1.73-.31-1.73-1.46-2.71-.04-2.33-.04-4.67 0-7h-1c-.95-9.25-1.15-18.45-1.15-27.74 0-1.55 0-3.09-.01-4.64 0-4.16-.01-8.32-.01-12.47v-7.8c-.01-9.08-.02-18.15-.02-27.22.01-8.46-.01-16.92-.02-25.37-.01-7.28-.02-14.55-.02-21.82 0-4.34 0-8.68-.01-13.02-.01-4.07-.01-8.14 0-12.21 0-1.49-.01-2.99-.01-4.49-.01-2.03 0-4.07 0-6.1v-3.46C154 372 154 372 156 370c2.71-.23 2.71-.23 6.1-.2l3.67.02 3.85.06c1.28 0 2.56.01 3.88.02 3.17.03 6.33.06 9.5.1v-12Zm50 130v12c1.34.14 2.68.29 4.06.44 4 .44 7.97.97 11.94 1.56.03-1.62.05-3.25.06-4.88.01-.9.03-1.8.04-2.74.06-2.4.06-2.4-1.1-4.38h-14l-1-2ZM1035 635c6.12 4.99 10.1 11.2 14 18 .61 1.06 1.22 2.13 1.86 3.22 6.41 11.91 11.91 27.19 8.08 40.78-2.18 6.6-6.32 11.74-12.32 15.31-10.85 4.72-24.93 5.87-36.62 4.69-1.49-.99-1.49-.99-3-2-.23-2.56-.28-4.88-.19-7.43.01-.75.03-1.49.04-2.26.05-3.19.13-6.37.21-9.56.34-14.43-.34-26.92-10.25-38.25-4.24-2.26-8.11-2.13-12.81-1.5-4.35 1.58-6.48 3.19-9 7-6.07 14.52-3.26 30 2.31 44.12a105.637 105.637 0 0 0 23.8 34.02c1.9 1.87 3.61 3.82 5.33 5.86 3.17 3.7 6.69 6.81 10.36 10 2.68 2.43 5 5.06 7.3 7.85 1.68 1.9 3.42 3.64 5.24 5.4 21.77 21.64 32.89 52.26 33.03 82.5V855c0 2.23.04 4.47.08 6.7.18 23.51-7.72 44.55-24.07 61.61-13.27 13.14-30.45 18.01-48.76 18.25-21.15-.16-41.13-7.77-56.17-22.95-15.52-16.56-22.24-39.34-23.45-61.61-.04-.7-.09-1.41-.13-2.13-.68-12.05.34-22.92 8.38-32.43 9.49-9.58 21.48-11.3 34.5-11.5 3.42 0 6.83.02 10.25.06 1.99 3.99.23 9.68-.52 13.98-2.83 17.56-3.42 36.82 1.52 54.02.28 1.08.56 2.17.84 3.28 2.6 9.03 7.38 15.39 15.16 20.72 5.32 2.49 10.21 2.67 16 2 5.12-2.33 7.95-5.83 10-11 2.68-7.93 2.4-16.1 2.38-24.38-.01-1.14-.01-1.14-.01-2.3-.04-11.51-.57-22.37-4.37-33.32-.24-.7-.47-1.41-.72-2.13-5.08-14.69-13.56-26.86-23.28-38.87-.64-.82-1.27-1.64-1.93-2.48-3.17-4.07-6.37-7.92-10.07-11.52-3.57-3.48-6.67-7.18-9.74-11.12-1.68-2.14-3.38-4.24-5.12-6.33C942.07 748.18 933.8 734.4 928 718c-.26-.71-.52-1.42-.78-2.15-6.23-17.72-7.62-39.62-.9-57.37 7.57-15.65 18.03-28.06 34.87-34.06 25.57-8.42 51.99-5.74 73.81 10.58ZM538.086 362.379c.63.53 1.26 1.07 1.91 1.62v2c.58.24 1.16.47 1.76.71 9.32 5.36 13.41 18.49 16.24 28.29 3.5 13.48 4.15 26.7 4.12 40.54v5c0 4.5-.01 9-.01 13.5-.01 4.71-.01 9.42-.01 14.14-.01 8.91-.01 17.83-.02 26.74-.02 10.15-.02 20.3-.03 30.46-.01 20.87-.02 41.75-.05 62.62l-13 1v11h-1v-11l-12 1v12c-2.39 1.2-3.91 1.14-6.58 1.16l-2.88.03c-1.03.01-2.06.01-3.13.01-1.05.01-2.11.02-3.19.02-2.24.01-4.47.02-6.71.02-3.43.01-6.85.04-10.28.07-2.17.01-4.33.02-6.5.02-1.03.01-2.06.02-3.12.04-.95-.01-1.91-.01-2.89-.01-1.26 0-1.26 0-2.55.01-2.67-.46-3.56-1.21-5.17-3.37-.29-2.7-.29-2.7-.18-5.69l.08-3.01c.03-.76.07-1.52.1-2.3-.7.01-1.41.02-2.14.04-10.31.09-20.56-.46-30.86-1.04-1.38-2.77-1.13-5-1.13-8.1 0-1.3-.01-2.6-.01-3.94v-4.36c0-1.52-.01-3.04-.01-4.57-.01-4.15-.01-8.29-.01-12.44 0-2.61-.01-5.21-.01-7.81-.01-9.09-.01-18.19-.01-27.28 0-8.43-.01-16.87-.03-25.3-.01-7.27-.02-14.53-.01-21.8 0-4.32-.01-8.65-.02-12.98-.16-69.63-.16-69.63 19.49-93.11 18.74-15.75 49.51-17.55 69.84-3.93ZM593.857 625.877H599.167c1.04 0 2.07.01 3.14.01h3.28c3.6 0 7.19.01 10.79.02h7.46c5.89 0 11.78.01 17.67.02 7.36.01 14.72.02 22.09.02 13.13.01 26.27.03 39.4.05 1.39 2.77 1.13 5.02 1.14 8.12 0 1.96 0 1.96.01 3.96v4.37c0 1.53.01 3.06.01 4.59.01 4.18.01 8.35.01 12.52 0 2.63 0 5.25.01 7.87.01 9.2.01 18.39.01 27.59 0 8.48.01 16.97.02 25.46.02 7.33.02 14.66.02 22 0 4.35 0 8.71.02 13.07.3 132.81.3 132.81-34.62 169.98-11.63 11.2-25.83 16.07-41.75 15.97-1.1 0-2.2-.01-3.33-.02-18.3-.4-35.94-7.93-49.11-20.72-10.5-11.91-15.49-26.65-19.44-41.76-.17-.63-.34-1.27-.51-1.92-3.18-12.13-3.7-24.66-3.86-37.14l-.08-3.17c-.02-7.78 1.22-14.35 6.7-20.14 9.66-5.71 19.68-5.81 30.63-5.81 1.04-.02 2.09-.03 3.16-.04 1 0 1.99-.01 3.02-.01 1.35 0 1.35 0 2.73-.01 2.21.24 2.21.24 4.21 2.24.26 2.13.26 2.13.27 4.81.01 1 .03 2.01.04 3.04v3.31c.03 2.33.05 4.65.08 6.98.03 3.66.05 7.31.07 10.97-.9 30.87-.9 30.87 11.04 58.02 3.89 3.55 7.14 5.16 12.44 5.19.83.01 1.67.03 2.53.05 3.2-.46 4.96-1.41 7.53-3.37 7.95-11.44 10.41-26.43 12-40 .09-.72.17-1.43.26-2.17 1.33-11.65 1.95-23.3 2.28-35.02.02-.71.04-1.42.07-2.15.45-15.55.61-31.11.7-46.67.02-3.75.05-7.5.07-11.25.05-7.04.1-14.09.14-21.13.05-8.05.11-16.09.16-24.13.11-16.49.22-32.99.32-49.48h-2v-2c-.72.01-1.45.01-2.19.01-6.82.02-13.63.04-20.44.04l-10.51.03c-4.02.01-8.05.02-12.07.02-1.26.01-2.53.01-3.83.02h-6.63c-2.33-.12-2.33-.12-3.33-1.12-.1-2.94-.14-5.86-.13-8.81v-8.3c.01-2.87 0-5.75 0-8.63v-5.44c0-.87 0-1.74-.01-2.63.03-7.11.03-7.11 3-7.31Z" fill="#66A47B"/><path d="M183 619c8.89-.05 17.79-.08 26.68-.1 4.14-.01 8.27-.03 12.4-.05 45.87-.25 45.87-.25 63.98 4.46.87.22 1.74.44 2.63.66 19.52 5.06 36.42 15.08 46.9 32.71 8.06 14.87 9.77 31.92 5.72 48.26-3.97 13-10.87 24.19-21.6 32.76-2.92 2.08-2.92 2.08-3.71 5.3 1.09.37 1.09.37 2.2.74 10.91 4.9 16.63 16.7 20.8 27.26 3.89 10.96 5.19 20.94 5.19 32.5v2.04c0 11.31-.51 22.55-1.19 33.84-1.95 32.69-2.97 65.28 7.5 96.76.5 1.86.5 1.86.5 4.86l-31 1 3 8c.19 3 .19 3 0 5-5.8.1-11.6.17-17.4.22-1.96.02-3.93.05-5.9.08-2.85.05-5.69.07-8.54.09l-2.62.06c-10.81.01-19.58-4.59-27.19-12.07-6.18-6.79-9.12-13.47-11.35-22.38l-1 20-28 1v13h-66c-1.28-2.56-1.13-4.36-1.13-7.22 0-1.12-.01-2.23-.01-3.38 0-1.23 0-2.47.01-3.74-.01-1.3-.01-2.6-.01-3.95-.01-3.62-.01-7.25-.01-10.88 0-3.91 0-7.82-.01-11.73 0-7.66-.01-15.32-.01-22.98v-18.68c-.01-17.63-.02-35.26-.02-52.89v-5.77c.01-15.44 0-30.89-.02-46.33-.01-15.84-.02-31.68-.02-47.52 0-8.9 0-17.8-.01-26.7-.01-7.58-.01-15.15-.01-22.73.01-3.87.01-7.74 0-11.61-.01-4.18 0-8.37 0-12.55 0-1.24-.01-2.47-.01-3.74 0-1.12.01-2.23.01-3.38v-2.93C154 634 154 634 156 632c2.71-.23 2.71-.23 6.1-.2l3.67.02 3.85.06c1.28 0 2.56.01 3.88.02 3.17.03 6.33.06 9.5.1v-13Zm7 8c-.1 1.63-.13 3.26-.13 4.9 0 1.06-.01 2.13-.01 3.23 0 1.19 0 2.37.01 3.59-.01 1.25-.01 2.5-.01 3.79-.01 3.48-.01 6.96-.01 10.45 0 3.75 0 7.5-.01 11.25 0 7.35-.01 14.7-.01 22.05v17.92c-.01 16.92-.02 33.84-.02 50.76V760.47c.01 14.82 0 29.64-.02 44.46-.01 15.2-.02 30.4-.02 45.6 0 8.54 0 17.08-.01 25.62-.01 7.27-.01 14.54-.01 21.81.01 3.71.01 7.43 0 11.14-.01 4.02 0 8.03 0 12.05 0 1.18-.01 2.37-.01 3.59 0 1.07.01 2.14.01 3.24v2.81c.04 2.42.04 2.42 2.25 4.21h50l1-176c27.6 5.52 27.6 5.52 35 16 5 9.84 6.23 17.92 6.25 28.81 0 .71 0 1.41.01 2.13.02 15.88-1.04 31.67-2.19 47.49-.07.96-.14 1.92-.21 2.91-.13 1.78-.26 3.57-.4 5.36-1.47 19.95-1.78 45.64 10.75 62.47 3.42 3.49 7.36 5.83 11.79 7.83l1.82.82c7.13 2.82 14.17 2.52 21.74 2.37l3.93-.04c3.17-.04 6.34-.09 9.51-.15 1.29-2.57.81-3.41.07-6.16-.33-1.29-.33-1.29-.66-2.6-.47-1.77-.93-3.53-1.41-5.29-3.91-15.41-4.34-31.07-4.25-46.89 0-1.34 0-1.34.01-2.71.02-11.79.46-23.44 1.52-35.19.84-9.91.95-19.79.97-29.72 0-.8.01-1.6.02-2.42.1-19.66-3.97-36.25-17.28-51.29-5.43-5.04-11.99-8.4-18.99-10.73v-2c.78-.19 1.57-.37 2.38-.56 12.91-5.12 21.12-15.59 27.62-27.44.58-1.01 1.15-2.02 1.75-3.06 5.31-12.48 5.13-29.35.25-41.94-6.89-15.99-17.04-26.23-33.28-32.74-4.61-1.56-9.24-2.8-13.97-3.95-.82-.2-1.64-.4-2.49-.61-13.48-3.12-26.88-4-40.66-3.93h-4.5c-3.1 0-6.2.01-9.3.02-3.99.02-7.97.02-11.95.02-3.08 0-6.15.01-9.23.02h-4.41c-2.04.01-4.07.01-6.11.02-1.16.01-2.31.01-3.51.02-2.52-.16-2.52-.16-3.59 1.13Zm60 183c-1.07 5.58-.83 10.39 0 16h1v-16h-1ZM988.625 613.563c1.8-.01 1.8-.01 3.64-.03 21.56.21 37.85 7.76 53.24 22.47 4.38 4.6 7.57 9.38 10.5 15 .52.97 1.04 1.94 1.58 2.94 7.59 14.51 11.09 30.65 7.35 46.93-2.2 6.95-6.22 12.08-12 16.44-6.6 3.27-14.58 5.69-21.93 5.69-.35.86-.35.86-.69 1.75-3.49 5.98-9.98 8.29-16.31 10.25-3.03.54-5.93.8-9 1 3.67 4.5 7.6 8.67 11.73 12.76.8.79.8.79 1.6 1.59 2.21 2.18 4.42 4.35 6.63 6.52 28.43 27.89 43.77 58.9 44.28 99.12.07 24.64-4.24 48.08-21.24 67.01-.83.92-1.66 1.84-2.5 2.78-9.64 10.18-19.93 16.26-33.29 20.01-3.45 1.3-4.71 2.6-7.21 5.21-2.29 1.3-4.5 2.46-6.88 3.56l-1.76.88c-10.93 5.13-22.83 6.09-34.74 6l-3.84-.03c-22.88-.39-41.78-8.97-57.78-25.41-3.24-3.86-6.23-7.81-9-12-.43-.52-.85-1.04-1.29-1.57-5.72-8.12-4.34-18.1-4.2-27.56.01-1.96.01-3.92.02-5.88.02-5.14.07-10.27.12-15.4.05-5.25.08-10.5.1-15.75.05-10.28.14-20.56.25-30.84.65.33 1.32.66 2 1 .39-.44.79-.88 1.2-1.34 4.32-4.01 10.24-6.75 16.11-7.29 4.54-.46 6.88-1.83 10.31-4.76 7.5-6.19 16.78-8.72 26.38-9.61-3.68-5.25-7.72-9.88-12.13-14.5-17.49-18.5-30.9-40.29-38.87-64.5-.35-.88-.69-1.76-1.04-2.67-1.3-4.47-1.69-8.89-2.09-13.52-.08-.94-.17-1.88-.25-2.85-1.75-20.56 1.04-39.92 14.24-56.54 8.21-9.3 17.03-14.31 28.14-19.42l2.27-1.21c1.73-.79 1.73-.79 4.91-1.04 4.46-.88 6.92-2.63 10.59-5.2 12.36-8.61 26.18-9.92 40.85-9.99Zm-51.25 27.12c-14.46 17.48-16.19 36.4-14.37 58.32 1.57 10.8 5.34 21.16 10 31 .38.84.77 1.69 1.17 2.56 8.83 18.47 22.96 36 37.64 50.25 3.84 3.74 7.01 7.87 10.19 12.19.45.6.9 1.21 1.36 1.84 15.95 21.57 25.03 42.9 24.95 69.96 0 2.26.02 4.51.05 6.77.04 10.35-.48 20.12-7.36 28.43-3.94 3.58-8.14 3.51-13.23 3.34-7.19-.88-12.16-4.92-17.02-10.09-9.12-11.72-9.95-29.96-9.94-44.19v-3.66c.05-8.66.71-16.87 2.19-25.4 1.11-5.64 1.11-5.64 0-11-14.65-.4-30.57-.46-42.38 9.37-7.25 6.92-10.18 14.32-10.88 24.26-.06 4.14.05 8.24.26 12.37.03 1.03.03 1.03.08 2.09 1.11 24.41 10.53 47.1 28.11 64.02 7.33 6.4 15.88 10.23 24.81 13.89 1.09.46 2.19.92 3.32 1.39 17.93 6.27 39.41 3.98 56.38-3.87 17.22-8.59 29.12-24.75 35.22-42.68.36-1.27.71-2.54 1.08-3.84.38-1.35.38-1.35.78-2.72 2.25-8.53 2.68-16.58 2.61-25.34-.02-2.24 0-4.49.02-6.73.04-32.65-12.96-62.72-35.89-85.9-1.35-1.33-2.73-2.64-4.1-3.96-2.18-2.11-4.15-4.28-6.11-6.6-2.24-2.63-4.55-4.9-7.19-7.13-17.59-14.97-33.88-37.28-37.12-60.62-.68-9.65-.43-19.21 4-28 4.83-4.53 8.96-5.49 15.42-5.4 4.42.69 6.84 2.99 9.58 6.4 7.72 11.33 6.17 25.42 5.88 38.44-.05 2.35-.08 4.71-.11 7.06l-.06 2.19c-.06 2.24-.06 2.24.29 5.31 7.47 4.98 20.63 1.93 29.13.34 8.47-1.76 13.88-4.3 19.39-11.07 5.18-7.98 5.37-17.13 3.46-26.21-4.81-20.46-15.6-38.48-33.67-49.81-27.57-15.44-66.26-10.79-87.94 12.43Zm29.63 201.32c-.45 22.57-.45 22.57 6 44h3c-.23-14.23-.23-14.23-3-28l-2-1c.33-.99.65-1.98 1-3-.61-1.69-1.29-3.35-2-5-.69-2.33-1.36-4.66-2-7h-1Z" fill="#93EFB2"/><path d="M971 358c6.94-.02 13.88-.04 20.83-.05l7.08-.03c3.39-.01 6.79-.01 10.18-.02 1.06 0 2.12-.01 3.21-.01h2.97c.87-.01 1.74-.01 2.63-.01 2.1.12 2.1.12 4.1 1.12v186c22.28.5 22.28.5 45 1l2 1v42c-12.94.44-12.94.44-17.02.57-1.06.04-2.11.07-3.19.11-1.09.04-2.17.08-3.29.11-2.44-.07-2.44-.07-3.5 1.21-.23 2.02-.41 4.04-.56 6.06-.09 1.11-.17 2.21-.26 3.35-.06.85-.12 1.71-.18 2.59-12.5.02-25 .04-37.5.05-5.8.01-11.61.01-17.41.03-5.59.01-11.19.01-16.79.01-2.14.01-4.28.01-6.42.02h-8.95c-.9.01-1.79.01-2.71.01-6.11-.01-6.11-.01-7.22-1.12-.16-1.52-.25-3.06-.32-4.59l-.12-2.82-.12-2.97c-.05-.97-.09-1.94-.13-2.94-.47-10.78-.47-10.78 2.81-15.12 13.2-18.44 18.57-43.82 16.63-66.43-1.14-6.03-4.04-11.13-8.75-15.13-2.49-1-2.49-1-5.19-1.69-1.59-.43-3.17-.86-4.81-1.31l-1-12c1.49-.5 1.49-.5 3-1v-39h-2l-1-36c7.92-.5 7.92-.5 16-1 .06-2.08.12-4.16.18-6.31.07-2.01.13-4.02.19-6.03.05-1.39.09-2.79.13-4.19.05-2.01.12-4.02.18-6.03.04-1.21.08-2.42.11-3.66C960 371 960 371 961 370c3-.14 5.99-.04 9 0l1-12ZM611.625 360.875c11.75 7.4 15.58 23.78 18.81 36.44l.79 3.01c.58 2.21 1.16 4.42 1.73 6.63.79 3.05 1.59 6.1 2.39 9.15 3.75 14.26 7.3 28.56 10.78 42.89 3.16 13.04 6.34 26.06 9.88 39 .64 2.37 1.28 4.73 1.92 7.09.92 3.41 1.85 6.82 2.78 10.23.3 1.1.6 2.2.9 3.33.27.98.54 1.97.82 2.98.58 2.37.58 2.37.58 4.37h2c-.34-.65-.66-1.31-1-2-.1-2.09-.13-4.18-.13-6.27v-1.97c0-2.2.01-4.39.01-6.58v-4.7c0-4.26.01-8.52.01-12.78.01-4.46.01-8.91.01-13.36 0-8.43.01-16.86.02-25.29.01-9.6.02-19.2.02-28.8.02-19.75.03-39.5.06-59.25 3.01-1.5 6.11-1.12 9.41-1.09h2.21l7 .03c1.58.01 3.16.01 4.74.02 3.88.01 7.76.02 11.64.04 1.57 3.16 1.14 6.55 1.14 10.01.01.84.01 1.68.01 2.54.01 2.82.02 5.64.02 8.47.01 2.01.01 4.03.02 6.05.02 5.49.03 10.98.04 16.47 0 3.43.01 6.86.02 10.29.01 10.73.03 21.46.04 32.19.01 12.39.03 24.78.07 37.17.03 9.58.05 19.15.05 28.72 0 5.72.01 11.44.04 17.16.02 5.38.03 10.77.02 16.15 0 1.97 0 3.95.02 5.92.01 2.7.01 5.4-.01 8.1.01.77.02 1.55.04 2.35-.08 6.11-1.7 11.5-6.04 15.98-4.93 4.21-8.13 4.86-14.47 4.77-4.98-.55-9.14-2.14-13.01-5.34-4.53-5.79-7.36-11.69-9.53-18.67-.29-.9-.59-1.81-.89-2.75-3.2-10.15-5.7-20.47-8.15-30.82-.5-2.1-1.01-4.2-1.51-6.3-1.08-4.46-2.15-8.92-3.22-13.39-2.69-11.17-5.43-22.33-8.17-33.49l-2.64-10.77c-.56-2.27-1.11-4.54-1.67-6.81-.24-.98-.47-1.95-.72-2.95-2.71-11.05-5.63-22.03-8.5-33.05-.34 52.81-.66 105.61-1 160h-35c-2.53-2.52-2.25-4.08-2.28-7.52 0-.78 0-1.55.01-2.35-.01-.83-.01-1.65-.02-2.5-.01-2.78-.01-5.55-.01-8.33 0-1.98-.01-3.97-.02-5.95-.01-5.4-.02-10.81-.02-16.21 0-4.51-.01-9.02-.02-13.53-.01-10.65-.02-21.29-.02-31.94.01-10.97-.02-21.95-.05-32.92-.02-9.43-.03-18.85-.03-28.27 0-5.63-.01-11.26-.03-16.88-.02-5.3-.02-10.6 0-15.9 0-1.94-.01-3.88-.02-5.82-.12-21.56-.12-21.56 5.92-28.5 6.66-6.02 13.8-6.53 22.21-4.5ZM341 363c12.22 12.22 15.08 30.23 19.08 46.34 1.54 6.14 3.2 12.24 4.86 18.35.3 1.13.61 2.27.93 3.44L368 439h2c.3-1.21.6-2.42.91-3.66 1.15-4.58 2.3-9.15 3.46-13.72.5-1.96.99-3.93 1.48-5.89 11.37-45.56 11.37-45.56 23.32-53.71 4.74-2.65 9.55-2.45 14.83-2.02 5.25 1.58 7.25 4.33 9.92 8.87 2.68 5.3 3.36 9.62 3.32 15.55 0 .85 0 1.69.01 2.56 0 2.84-.01 5.67-.02 8.5v6.09c0 5.51-.01 11.02-.03 16.53-.01 5.76-.01 11.52-.01 17.29-.01 10.9-.03 21.81-.05 32.72-.02 12.42-.03 24.84-.04 37.25-.02 25.55-.06 51.09-.1 76.64-4.95.05-9.9.09-14.84.11-1.69.01-3.37.02-5.06.04-2.41.03-4.83.04-7.25.05l-2.29.03c-1.85 0-3.71-.11-5.56-.23-2-2-2-2-2.25-4.69V571.87c-.01-2.16 0-4.32.01-6.48 0-1.54-.01-3.09-.01-4.63 0-4.2 0-8.4.01-12.6.01-4.39.01-8.78.01-13.17 0-7.37.01-14.74.02-22.11.02-8.53.03-17.06.02-25.59 0-8.2.01-16.39.02-24.59v-10.47c0-4.11.01-8.22.02-12.34v-4.53c0-2.06.01-4.12.02-6.17v-3.5C390 423 390 423 391 421h-3c-.16 1.87-.16 1.87-.32 3.77-.65 5.78-2.05 11.29-3.52 16.91-.28 1.08-.56 2.17-.84 3.29-.59 2.29-1.19 4.57-1.78 6.85-.92 3.5-1.81 7-2.7 10.49l-1.74 6.68c-.26 1.04-.53 2.09-.8 3.16-.26.98-.52 1.95-.78 2.95-.22.85-.44 1.7-.67 2.58-.92 2.52-2.15 4.27-3.85 6.32-2.96-.61-4.38-1.25-7-3-.92-2.79-1.68-5.49-2.36-8.34-.43-1.74-.86-3.47-1.3-5.21-.33-1.35-.33-1.35-.67-2.72-.86-3.51-1.77-6.99-2.68-10.48-.89-3.41-1.76-6.82-2.64-10.24-.45-1.74-.9-3.49-1.35-5.24-.67-2.57-1.33-5.14-1.99-7.71-.2-.78-.4-1.57-.61-2.37-1.4-5.46-1.4-5.46-1.4-7.69-.99-.5-.99-.5-2-1v162h-34c-2.53-2.53-2.24-4.11-2.27-7.56 0-.78.01-1.57.01-2.37 0-.83-.01-1.66-.01-2.51-.01-2.8-.01-5.59 0-8.39-.01-1.99-.01-3.99-.02-5.99-.01-5.44-.01-10.87-.01-16.31 0-4.54-.01-9.08-.01-13.62-.01-10.7-.01-21.41-.01-32.12.01-11.05 0-22.09-.02-33.14-.02-9.48-.03-18.96-.02-28.44 0-5.66 0-11.32-.02-16.99-.01-5.33-.01-10.66 0-15.99.01-1.95 0-3.9 0-5.86-.02-2.67-.01-5.34.01-8.02-.02-1.15-.02-1.15-.03-2.33.06-6.17 1.24-11.77 5.3-16.64.67-.55 1.35-1.09 2.04-1.66.67-.56 1.34-1.13 2.02-1.71 6.15-4.07 15.2-3.54 21.04.65Z" fill="#66A47B"/><path d="M722 358c6.8-.02 13.6-.04 20.4-.05l6.94-.03c3.32-.01 6.64-.01 9.96-.02 1.56-.01 1.56-.01 3.16-.01h2.91c.84-.01 1.69-.01 2.57-.01C770 358 770 358 772 359c.6 3.65.75 7.3 1 11h13v-12c6.94-.02 13.88-.04 20.83-.05l7.08-.03c3.39-.01 6.79-.01 10.18-.02 1.06 0 2.12-.01 3.21-.01h2.97c.87-.01 1.74-.01 2.63-.01 2.1.12 2.1.12 4.1 1.12.6 3.65.75 7.3 1 11h12c1.3 2.61 1.13 4.52 1.14 7.45.02 1.73.02 1.73.03 3.5v3.87c.01 1.36.02 2.71.02 4.06.02 2.93.03 5.85.04 8.77l.06 13.93c.08 13.21.14 26.42.19 39.63.03 7.29.06 14.58.1 21.87.03 3.85.04 7.69.05 11.54-1.27 49.54-1.27 49.54 20.12 92.34 10.96 9.96 21.68 13.72 36.25 15.04v2h5c-7.52 8.23-15.87 12.15-27.06 12.75l-2.26.12c-14.11.58-26.43-2.38-37.29-11.61-9.43-8.93-14.08-19.23-18.39-31.26-.45.72-.89 1.45-1.36 2.2-5.66 9.05-10.45 15.18-19.64 20.8-.79.52-1.58 1.04-2.4 1.57-12.73 7-28.89 4.94-42.6 2.43-11.86-3.45-23.61-12.88-29.81-23.54-4.13-8.53-6.42-17.47-7.94-26.77-.17-1.05-.17-1.05-.35-2.11-2.71-18.42-2.12-37.31-2.24-55.89l-.06-9.37c-.06-7.37-.11-14.74-.16-22.11-.05-7.57-.1-15.14-.16-22.71l-.15-19.63c-.02-3.89-.05-7.78-.08-11.67-.03-3.65-.05-7.3-.07-10.96-.02-1.96-.03-3.91-.05-5.87-.04-7.51.31-14.9 1.07-22.37Zm7 7c-.05 20.98-.08 41.95-.1 62.93-.01 9.74-.03 19.48-.05 29.22-.02 8.5-.03 17-.04 25.49 0 4.5-.01 8.99-.02 13.48-.02 4.24-.02 8.48-.02 12.73 0 1.54 0 3.09-.01 4.63-.1 20.72 1.45 44.66 16.2 60.64 9.79 9.05 21.66 12.21 34.66 12.32l2.64.03c12.17-.16 21.51-4.36 30.36-12.53 18.33-19.12 17.53-51.17 17.53-76 0-1.43 0-2.87.01-4.3 0-3.85.01-7.7.01-11.54v-7.22c.01-8.41.02-16.82.02-25.22-.01-7.83.01-15.66.02-23.49.01-6.74.02-13.48.02-20.22 0-4.02 0-8.03.01-12.05.01-3.77.01-7.53 0-11.3 0-1.38.01-2.77.01-4.15.01-1.88 0-3.76 0-5.65v-3.19c-.06-2.84-.06-2.84-2.25-5.61a56.35 56.35 0 0 0-7.34-.33c-.73 0-1.45.01-2.2.01-1.53 0-3.07.02-4.6.04-2.35.03-4.7.04-7.05.05-1.49 0-2.98.02-4.47.03-1.05 0-1.05 0-2.13.01-3.73 0-3.73 0-7.21 1.19 0 .77-.01 1.54-.01 2.34l-.33 56.52c-.05 9.11-.11 18.23-.16 27.34-.04 7.95-.09 15.9-.14 23.85-.02 4.2-.05 8.4-.07 12.61-.15 30.21-.15 30.21-.72 41.53-.04.7-.07 1.4-.11 2.13-.58 9.51-1.41 21.63-8.46 28.68-4.12.54-6.24.5-9.75-1.81-12.08-17.12-7.58-48.15-7.62-68.29-.01-4.4-.04-8.8-.06-13.2-.04-8.3-.07-16.6-.1-24.9-.05-14.91-.12-29.83-.19-44.74l-.06-15.69c-.01-3.24-.02-6.47-.04-9.7 0-1.51-.01-3.01-.01-4.52 0-2.04-.01-4.08-.03-6.13 0-1.14 0-2.29-.01-3.47.16-2.48.16-2.48-1.13-3.55-2.42-.1-4.82-.14-7.25-.13-.72 0-1.45 0-2.2-.01-1.54 0-3.08.01-4.61.01-2.36 0-4.72 0-7.08-.01-1.5 0-2.99.01-4.48.01-.71 0-1.42-.01-2.15-.01-3.74-.04-3.74-.04-7.23 1.14Z" fill="#93EFB2"/><path d="M165.32 631.678c1.21 0 2.43.01 3.68.01 1.82-.02 1.82-.02 3.68-.05h3.51c1.6-.01 1.6-.01 3.23-.01.85.12 1.7.25 2.58.37 2.2 3.31 2.25 4.3 2.26 8.15.01 1.07.02 2.14.02 3.25v3.58c0 1.25.01 2.5.02 3.79.01 3.49.01 6.97.02 10.45 0 3.75.02 7.51.03 11.26.02 6.5.04 13.01.05 19.51.01 9.4.04 18.81.06 28.21.05 15.25.09 30.51.12 45.77.03 14.82.06 29.64.1 44.46 0 .91.01 1.83.01 2.77.01 4.58.02 9.16.04 13.74.1 38.02.19 76.04.27 114.06 1.53-.01 1.53-.01 3.09-.01 3.77-.02 7.55-.03 11.33-.04 1.63-.01 3.27-.01 4.9-.02 2.35-.02 4.7-.02 7.05-.03.73 0 1.46-.01 2.22-.01 5.18 0 5.18 0 7.41 1.11v13h-66c-1.28-2.56-1.13-4.35-1.13-7.22 0-1.11-.01-2.23-.01-3.38 0-1.23 0-2.46.01-3.74-.01-1.3-.01-2.6-.01-3.94-.01-3.63-.01-7.26-.01-10.89 0-3.91 0-7.82-.01-11.73 0-7.66-.01-15.32-.01-22.98v-18.68c-.01-17.63-.02-35.26-.02-52.89v-5.77c0-15.44 0-30.88-.02-46.33-.01-15.84-.02-31.68-.02-47.52 0-8.9 0-17.8-.01-26.7-.01-7.58-.01-15.15-.01-22.73.01-3.87.01-7.73 0-11.6-.01-4.19-.01-8.37 0-12.56 0-1.23-.01-2.47-.01-3.74 0-1.11.01-2.23.01-3.38v-2.93c.67-6.14 6.82-4.58 11.57-4.61ZM411 629c-1.03 3.1-2.21 4.3-4.5 6.53-33.13 32.44-38.01 89.46-38.65 133.43-.03 4.01-.04 8.03-.04 12.04v2.57c.02 13.25.45 26.36 1.88 39.53.32 3.02.61 6.04.9 9.06 3.11 30.67 10.07 63.68 30.41 87.84.45.59.89 1.18 1.35 1.79 10.14 12.98 26.69 21.34 42.65 24.21 4.92.45 9.82.6 14.75.69 1.28.03 2.56.07 3.88.1 3.13.08 6.25.15 9.37.21-3.26 3.39-6.28 5.44-10.5 7.56-1.69.87-1.69.87-3.41 1.76-9.5 4.21-19.11 5.21-29.4 5.12l-3.59-.03c-20.14-.39-35.72-7.68-49.74-21.98A76.878 76.878 0 0 1 368 929c-.71-1.04-1.41-2.08-2.14-3.15-7.62-11.72-14.49-25.8-15.86-39.85h-2c-4.36-17.3-4.36-17.3-4.82-26.09.02-1.92.02-1.92-1.18-2.91-.1-1.47-.13-2.94-.13-4.42 0-.92-.01-1.85-.01-2.8.01-.98.01-1.96.02-2.97-.01-.92-.01-1.85-.02-2.81.01-5.28.22-10.51.63-15.78 1.39-18.27 2.21-36.65-3.49-54.22-1.19-5.63-1.19-5.63 0-8 .07-1.87.08-3.75.06-5.62-.01-1.01-.02-2.01-.02-3.04-.02-.77-.03-1.55-.04-2.34h1v-11h1l-.06-3.75c-.05-2.97.33-5.38 1.06-8.25.29-1.56.57-3.12.83-4.68 4.79-27.62 4.79-27.62 8.22-34.41 1.06-1.9 1.06-1.9 1.34-4.18.85-3.8 2.57-6.98 4.36-10.42.73-1.43 1.47-2.86 2.2-4.29.35-.69.71-1.38 1.07-2.1 1.24-2.43 2.38-4.89 3.54-7.36 2.52-5.04 5.86-9.23 9.44-13.56.72-.99 1.44-1.98 2.19-3 5.68-6.67 26.58-23.62 35.81-19Zm-58 59 1 2ZM559.614 631.773l3.27.03 3.53.02c1.23.02 2.45.03 3.71.05l3.73.03c3.05.02 6.1.06 9.15.1 1.71 3.43 1.24 7.38 1.31 11.16.02.91.04 1.82.07 2.75l.18 8.71c.04 1.97.09 3.93.13 5.9.11 4.83.21 9.65.31 14.48 1.12-.01 1.12-.01 2.27-.01 7.05-.02 14.09-.03 21.14-.04l10.88-.03c3.49-.01 6.99-.02 10.48-.02 1.99 0 3.98-.01 5.96-.02h6.87c2.4.12 2.4.12 3.4 1.12.09 1.52.12 3.04.12 4.56.01 1.49.01 1.49.01 3v6.79c.01 3.83 0 7.66 0 11.49v24.97c-.01 5.73-.01 11.47 0 17.2.11 136.53.11 136.53-14.51 154.36-2.62 1.63-2.62 1.63-6.06 1.69-5.01-1.5-8.33-3.25-11.31-7.63-1.72-4.71-2.5-9.48-3.25-14.43l2-1v-9h1c1.63-40.99 2.14-81.93 2.06-122.95-.01-6.24-.01-12.48-.01-18.71-.02-12.12-.03-24.23-.05-36.34l-2.23-.03c-6.92-.08-13.83-.16-20.75-.26-3.55-.05-7.11-.1-10.67-.13-4.08-.05-8.17-.11-12.25-.17-1.92-.02-1.92-.02-3.88-.03l-3.58-.06c-1.04-.02-2.09-.03-3.16-.04-2.48-.28-2.48-.28-4.48-2.28-.26-2.24-.26-2.24-.26-5.06l-.02-3.2c0-1.14.01-2.28.01-3.46 0-1.17 0-2.34-.01-3.54 0-2.48.01-4.95.02-7.43.01-3.8 0-7.6-.02-11.39 0-2.4.01-4.8.01-7.2 0-1.15-.01-2.29-.01-3.47 0-1.05.01-2.11.02-3.19v-2.82c.39-3.43 1.5-4.18 4.87-4.47ZM759 630c-.85.93-1.69 1.86-2.56 2.81-23.69 27.91-25.97 67.15-25.78 102.14v6.81c0 6.07.01 12.15.04 18.22.01 6.38.02 12.76.02 19.14.01 10.68.03 21.35.05 32.03.03 10.99.05 21.97.07 32.96v2.06c0 3.41.01 6.83.01 10.24.03 28.2.08 56.39.15 84.59 1.06-.01 2.11-.01 3.2-.02 3.9-.01 7.8-.03 11.7-.03l5.07-.03c2.43-.01 4.85-.01 7.28-.02 1.14-.01 1.14-.01 2.3-.01 1.82 0 3.63.05 5.45.11 1 1 1 1 1.1 3.94-.01 1.2-.03 2.39-.04 3.62-.01 1.2-.02 2.4-.02 3.63-.02.93-.03 1.86-.04 2.81-8.44.05-16.88.08-25.32.1-3.92.01-7.84.03-11.76.05-3.78.02-7.56.03-11.34.04-1.44 0-2.89.01-4.33.02-2.02.02-4.04.02-6.06.02-1.72 0-1.72 0-3.48.01C702 955 702 955 700 953c-.24-2.82-.24-2.82-.23-6.47v-2.01c0-2.2.02-4.39.03-6.59.01-1.52.01-3.04.01-4.57.01-4 .03-8.01.05-12.02.02-4.09.03-8.18.04-12.27.02-8.02.06-16.05.1-24.07h-1c.63-6.5 1.62-12.9 2.71-19.34 7.71-45.61 8.58-91.32 8.83-137.47.06-9.49.12-18.99.19-28.49l.06-9.85c.01-2 .02-4 .04-6v-2.73c.04-4.81.37-9.38 1.17-14.12h2c.28-1.42.28-1.42.56-2.88 1.56-5.44 5.04-9.68 8.44-14.12.48-.64.95-1.29 1.44-1.95 6.6-8.37 15.87-13.08 25.56-17.05.85-.4 1.7-.79 2.57-1.2 2.66-.88 3.85-.76 6.43.2ZM938 628l2 2c-.56.5-1.11 1-1.69 1.51-13.32 12.53-20.58 28.62-21.48 46.89-.12 22.31 4.29 42.11 15.17 61.6.51.92 1.01 1.85 1.53 2.8 7.91 13.79 18.71 26.01 29.47 37.64 18.39 20.06 36.58 44.78 40 72.56.11.74.22 1.49.33 2.25 1.59 12.71 2.75 29.14-4.33 40.44-2.81 3.24-4.39 4.24-8.69 4.75-5.69-.13-9.83-3.24-13.97-6.91-1.96-2.23-2.53-4.71-3.34-7.53h3c-.33-1.11-.66-2.23-1-3.38-1.06-4.18-1.1-8.05-1-12.34 0-2.53-.35-4.83-1-7.28h-1c.09-.96.09-.96.19-1.94-.27-4.3-1.76-8.02-3.19-12.06-2.81-8.44-2.07-15.84-.62-24.44.18-1.19.18-1.19.38-2.41.88-5.43 1.99-10.79 3.24-16.15-1.22.06-1.22.06-2.46.13-24.66 1.03-24.66 1.03-31.04-3.93-2.85-2.83-5.15-6-7.31-9.38-1.73-2.65-3.81-4.99-5.88-7.38-1.44-1.81-2.88-3.62-4.31-5.44-.82-1.03-1.64-2.05-2.49-3.11-12.18-15.36-21.37-32.26-27.51-50.89-.34-.88-.68-1.76-1.03-2.66-1.3-4.48-1.7-8.89-2.09-13.53-.09-.94-.17-1.88-.26-2.84-1.74-20.57 1.04-39.93 14.24-56.55 8.22-9.3 17.04-14.31 28.14-19.42.77-.39 1.55-.78 2.34-1.18 1.9-.94 3.55-1.54 5.66-1.82Z" fill="#444746"/><path d="M589.852 618.873c1.58 0 1.58 0 3.18-.01 1.75 0 1.75 0 3.52.01 1.22 0 2.44-.01 3.69-.01h10.03c3.5.01 6.99 0 10.49 0 5.87 0 11.74 0 17.61.01 6.79 0 13.59 0 20.38-.01H686.672c3.88 0 7.76 0 11.64.01 1.74-.01 1.74-.01 3.52-.01 1.05 0 2.1.01 3.19.01h2.78c2.2.13 2.2.13 4.2 1.13.16 33.52-.04 67.05-.32 100.57-.04 4.61-.07 9.22-.1 13.83-.46 67.57-.46 67.57-4.46 100.41-.17 1.49-.35 2.99-.52 4.48-4.1 34.52-9.16 72.46-37.54 96.16-17.46 12.92-36.72 13.76-57.83 11.21-18.03-3.03-34.92-14.07-45.54-28.89-15.88-23.53-19.89-50.25-20-78.21l-.02-3.39c.05-6.36.7-12.02 2.33-18.17h2c.06-.58.12-1.16.19-1.75 1.4-3.88 4.37-5.5 7.93-7.36 7.17-3.35 13.69-4.05 21.52-4.03h2.46c1.7 0 3.4 0 5.1.01 2.62 0 5.23 0 7.85-.01h7.35c5.48.02 5.48.02 6.6 1.14.09 1.52.1 3.06.1 4.59-.01.97-.01 1.95-.01 2.96l-.03 3.24c0 1.1-.01 2.2-.01 3.34-.02 4.71-.05 9.43-.07 14.15-.02 3.44-.03 6.88-.04 10.33l-.03 3.16c-.03 9.65.12 19.44 2.5 28.84.46 1.87.85 3.76 1.21 5.65 1.59 8.64 1.59 8.64 7.38 14.74 3.02 1.98 5.41 2.7 9 2 30.19-31.61 16.14-116.37 16.07-157.16-.01-7.91-.02-15.82-.02-23.73-.01-14.04-.03-28.08-.05-42.11-29.7-.5-29.7-.5-60-1-1.67-3.33-1.27-7.08-1.35-10.75-.03-.87-.05-1.75-.07-2.66-.05-1.87-.1-3.73-.14-5.6-.07-2.82-.14-5.64-.22-8.46-.51-19.78-.51-19.78.78-27.53 1.65-1.65 3.58-1.13 5.85-1.13Zm1.15 8.13c-.1 2.94-.14 5.86-.14 8.81v2.68c0 1.87 0 3.74.01 5.62 0 2.87 0 5.75-.01 8.63v8.07c-.37 3.91-.37 3.91 1.14 7.19 1.81.09 3.62.11 5.44.11h3.51c1.27 0 2.53-.01 3.83-.02h3.9c3.42 0 6.85-.01 10.27-.02 3.5-.01 6.99-.02 10.48-.02 6.86-.01 13.71-.03 20.57-.05v2h2c-.11 17.29-.22 34.58-.34 51.87-.06 8.04-.11 16.07-.16 24.1-.04 7.02-.09 14.04-.14 21.06-.03 3.71-.05 7.41-.07 11.11-.09 15.5-.29 30.99-.73 46.49-.01.67-.03 1.34-.05 2.03-1.6 59.73-1.6 59.73-15.51 76.34-4.44 2.74-8.93 2.65-14 2-5.55-2.83-10.02-6.74-12.51-12.5-.41-1.31-.8-2.62-1.18-3.94-.2-.62-.4-1.25-.6-1.89-5.03-16.73-4.1-34.38-4.24-51.65-.04-3.57-.08-7.15-.13-10.73 0-1.1-.01-2.21-.01-3.34-.02-1.02-.03-2.04-.05-3.08 0-.9-.01-1.79-.02-2.71-.06-2.37-.06-2.37-2.26-4.16-2.25-.31-2.25-.31-4.84-.27-.98 0-1.97 0-2.98-.01l-3.12.03c-1.49-.01-1.49-.01-3.02-.03-10.05.03-21.68.53-29.54 7.63-5.41 5.93-4.94 14.02-4.81 21.52l.03 3.35c.48 27.89 5.98 58.57 25.84 79.53 13.38 12.33 31.7 18.86 49.69 18.75l3.31-.02c15.32-.34 28.22-5.61 39.56-16.05 24.73-26.25 29.05-67.13 32-101.37.08-.87.15-1.73.23-2.63 1.79-22.38 1.8-44.78 1.78-67.21v-13.33c.01-7.44 0-14.87 0-22.3-.01-8.6-.01-17.19 0-25.79 0-7.41.01-14.82 0-22.24v-13.24c.01-4.13 0-8.26 0-12.39v-4.55c0-2.06 0-4.12-.01-6.19v-3.5c.06-2.66.06-2.66-1.12-4.69-14.46-.03-28.91-.04-43.37-.05l-20.13-.03c-6.47-.01-12.94-.02-19.42-.02-2.47 0-4.94 0-7.42-.01-3.45-.01-6.91-.01-10.36-.01-1.03 0-2.07 0-3.13-.01-1.41 0-1.41 0-2.84.01-.82 0-1.63-.01-2.48-.01-1.87-.08-1.87-.08-2.85 1.13Z" fill="#93EFB2"/><path d="m158.614 369.773 3.27.03 3.53.02c1.23.02 2.45.03 3.71.05l3.73.03c3.05.02 6.1.06 9.15.1 1.26 2.53 1.13 4.28 1.15 7.11.01 1.09.01 2.17.02 3.29l.02 3.62.03 5.79c.02 2.08.03 4.15.04 6.23.02 4.35.04 8.7.07 13.05.06 8.48.11 16.95.15 25.43.06 10.72.12 21.44.19 32.16.03 3.61.05 7.21.07 10.82-.2 28.43-.2 28.43 2.51 56.68.12.82.25 1.63.39 2.47 2.88 17.14 7.92 34.34 22.36 45.35 8.77 5.73 17.26 8.85 27.69 9.65 3.35.35 6.16 1.17 9.31 2.35-2.74 2.91-5.44 5.08-8.88 7.12-.82.5-1.64 1-2.49 1.51-11.23 5.83-26.6 5.6-38.63 2.37-14.99-5.74-24.81-15.23-31.56-29.74-3.38-7.85-5.18-16.22-6.98-24.55-.32-1.73-.32-1.73-1.46-2.71-.04-2.34-.05-4.67 0-7h-1c-.96-9.26-1.15-18.45-1.15-27.75 0-1.54-.01-3.09-.01-4.63-.01-4.16-.01-8.32-.01-12.48 0-2.6 0-5.2-.01-7.8-.01-9.07-.01-18.14-.01-27.22 0-8.45-.01-16.91-.02-25.37-.02-7.27-.02-14.54-.02-21.81 0-4.34-.01-8.68-.02-13.02-.01-4.07-.01-8.14 0-12.21 0-1.5 0-2.99-.01-4.49 0-2.03 0-4.07.01-6.1v-3.46c.34-3.66 1.18-4.57 4.86-4.89Z" fill="#444746"/><path d="M183 358c14.05-.02 28.09-.04 42.14-.05 6.52-.01 13.04-.01 19.57-.03 6.29-.01 12.58-.01 18.86-.01 2.41-.01 4.81-.01 7.22-.02h10.07c1-.01 2-.01 3.04-.01h5.17C291 358 291 358 293 359l-1 42c-4.27.17-8.54.33-12.94.5-1.35.05-2.69.1-4.08.16l-3.19.12c-1.09.04-2.17.09-3.29.13-2.5.09-2.5.09-3.5.09v13h-31l-1 20c4.6-.03 4.6-.03 9.3-.07 2.97-.02 5.94-.03 8.91-.04 2.06-.01 4.13-.02 6.19-.04 2.97-.03 5.93-.04 8.9-.05l2.8-.03h2.61c.76 0 1.52-.01 2.3-.01C276 435 276 435 279 437c.27 2.98.35 5.75.29 8.73 0 .86-.01 1.72-.01 2.61-.02 2.76-.05 5.52-.09 8.28-.02 1.87-.03 3.74-.04 5.61-.04 4.59-.09 9.18-.15 13.77-3.57.82-6.86 1.12-10.52 1.1-1.02-.01-2.04-.01-3.1-.01l-3.19-.03c-1.08 0-2.15-.01-3.26-.01-2.64-.01-5.29-.03-7.93-.05.5 4.95.5 4.95 1 10h23v2c.58.03 1.16.05 1.76.08 5.46.39 9.01 1.17 13.24 4.92 8.57 11.52 6.79 25.53 4.81 39.12-2.09 13.27-5.71 25.37-12.81 36.88-.62 1.15-.62 1.15-1.26 2.32-5.51 9.47-14.61 16.13-24.99 19.3-5.42 1.27-10.22 1.93-15.75 1.38-1.64-.09-1.64-.09-3.32-.18-13.88-1.19-26.17-6.7-35.57-17.16-21.5-27.13-18.22-67.74-18.45-100.35l-.06-8.75c-.06-6.89-.11-13.78-.16-20.66-.05-7.06-.1-14.13-.16-21.19l-.15-18.34c-.02-3.63-.05-7.27-.08-10.9-.04-4.04-.06-8.08-.09-12.12l-.03-3.58c-.04-7.31.34-14.5 1.07-21.77Zm7.28 7.18c-1.77 2.51-1.65 4.23-1.65 7.28l-.03 3.45.03 3.78c-.01 1.31-.01 2.63-.01 3.98-.01 3.62 0 7.23.01 10.85.01 3.8.01 7.61.01 11.41-.01 6.42.01 12.84.02 19.26.02 7.35.03 14.7.02 22.05 0 7.12 0 14.24.01 21.36.01 3 .01 6 .01 9-1.56 49.95-1.56 49.95 17.59 94.73 10.36 10.08 22.51 14 36.64 14.06 11.02-.21 20.23-4.67 28.07-12.39 14.4-16.57 18.06-37.87 18.38-59.12.03-.96.07-1.91.11-2.88.08-6.69-.99-10-5.49-15-7.04-4.3-18.08-3.42-26-3l-2 1 .03 3.94c.04 4.88.06 9.75.08 14.63.01 2.1.02 4.2.04 6.3.24 30.14.24 30.14-6.15 39.13-2.45 1.22-4.14 1.17-6.88 1.19-.86.01-1.72.03-2.61.04-2.83-.26-4.26-.48-6.51-2.23-4.52-11.04-4.97-23.61-5.79-35.37-.14-1.68-.29-3.36-.48-5.04-1.06-9.57-.84-19.16-.79-28.78L227 470h44c2.06-4.12 1.18-9.47 1.19-14l.03-3.39c.01-1.07.01-2.14.01-3.23 0-.99.01-1.97.01-2.98 0-2.58 0-2.58-2.24-4.4-1.89-.32-1.89-.32-4.07-.3-.83-.02-1.67-.04-2.53-.05l-2.75-.03c-.92-.02-1.85-.03-2.81-.05-2.97-.05-5.93-.09-8.9-.13-2.97-.05-5.95-.09-8.92-.15-1.85-.03-3.7-.05-5.55-.08-6.36-.1-6.36-.1-7.47-1.21-.09-1.44-.12-2.89-.11-4.34v-2.83c0-.98.01-1.97.01-2.99 0-.9 0-1.81.01-2.74 0-3.39.01-6.77.03-10.16L227 394h58v-29c-2.08-2.08-6.64-1.16-9.51-1.16-.89-.01-1.79-.01-2.71-.02-2.96-.01-5.93-.02-8.9-.02-2.05-.01-4.11-.01-6.16-.02-4.31-.01-8.62-.02-12.94-.02-5.53-.01-11.07-.03-16.6-.06-4.24-.02-8.49-.02-12.73-.02-2.04-.01-4.08-.01-6.13-.03-2.85-.01-5.7-.01-8.55-.01-.85-.01-1.7-.01-2.57-.02-4.19-.07-4.19-.07-7.92 1.56ZM233 488v12c1.34.14 2.68.29 4.06.44 4 .44 7.97.97 11.94 1.56.03-1.62.05-3.25.06-4.88.01-.9.03-1.8.04-2.74.06-2.4.06-2.4-1.1-4.38h-14l-1-2Z" fill="#93EEB1"/><path d="M851 358c14.06-.02 28.13-.04 42.19-.05 6.53-.01 13.06-.01 19.59-.03 6.3-.01 12.59-.01 18.89-.01 2.41-.01 4.82-.01 7.22-.02h10.08c1.01-.01 2.01-.01 3.05-.01h5.17C959 358 959 358 960 359c1.36 9.02.99 18.1.62 27.19-.04 1.33-.08 2.67-.13 4-.36 9.68-.36 9.68-1.49 10.81-1.92.16-3.85.25-5.79.32a2468.521 2468.521 0 0 1-7.27.24c-1.86.07-1.86.07-3.75.13-3.06.11-6.13.21-9.19.31l-1 13h-30v20h42v2h2v39c-3.4.85-5.77 1.12-9.2 1.1-.98-.01-1.96-.01-2.97-.01l-3.08-.03c-1.55 0-1.55 0-3.13-.01-2.54-.01-5.08-.03-7.62-.05v11h22c.5-1.98.5-1.98 1-4v5c1.83.15 1.83.15 3.69.31 5.46.71 8.25 2.53 12 6.63 6.31 8.36 5.62 17.51 4.62 27.56-.09.95-.18 1.9-.27 2.87-1.27 12.1-3.08 24.87-9.04 35.63-.49.94-.98 1.88-1.49 2.85-6.14 11.18-14.07 21.6-26.33 26.21-11.95 3.36-26.7 2.91-38.18-2.06-.88-.38-1.75-.76-2.66-1.14-14.52-7.08-22.79-18.98-28.03-33.82-5.78-17.87-6.42-36.94-6.53-55.57-.01-1.39-.02-2.78-.04-4.17-.03-3.73-.05-7.47-.08-11.2l-.06-9.4c-.06-7.4-.11-14.8-.16-22.19-.05-7.6-.1-15.2-.16-22.8l-.15-19.68c-.02-3.9-.05-7.8-.08-11.71-.03-3.67-.05-7.33-.07-11-.02-1.97-.03-3.94-.05-5.91-.04-7.52.3-14.92 1.07-22.41Zm6 8c-.46 2.56-.46 2.56-.38 5.6l-.03 3.61c.01 1.32.02 2.64.02 3.99 0 1.4-.01 2.79-.01 4.19-.02 3.8-.01 7.6 0 11.41 0 4 0 8-.01 12 0 6.75 0 13.5.02 20.25.02 7.73.01 15.46-.01 23.19-.01 6.67-.01 13.35 0 20.02 0 3.97 0 7.94-.01 11.91-1.35 48.64-1.35 48.64 18.47 91.08 9.94 9.62 22.49 13.22 36.02 13.18 10.97-.29 18.84-4.38 26.67-11.98 14.79-16.08 19.27-38.17 19.63-59.45.03-.85.07-1.7.11-2.58.08-6.26-1.3-10.66-5.49-15.42-7.55-3.86-17.7-3.43-26-3l-2 1 .03 3.76c.04 4.65.06 9.3.08 13.95.01 2.01.02 4.01.04 6.01.25 29.75.25 29.75-6.15 40.28-2.41 1.2-4.13 1.27-6.81 1.38-.85.04-1.71.09-2.58.14-3.88-.78-5.21-2.42-7.61-5.52-1.09-2.74-1.69-5.49-2.25-8.38-.16-.72-.32-1.45-.48-2.21-3.77-17.59-3.41-35.58-3.33-53.47 0-2.04.01-4.09.01-6.13.01-4.94.03-9.87.05-14.81l3.92.03c4.78.04 9.56.06 14.34.08 2.07.01 4.15.02 6.22.04 2.97.03 5.94.04 8.92.05 1.39.01 1.39.01 2.82.03h2.61c.76 0 1.51.01 2.3.01 2.12-.08 2.12-.08 3.87-2.24.31-2.49.31-2.49.27-5.38v-3.23l-.02-3.39c.01-1.12.02-2.24.02-3.39v-3.23c-.01-1.48-.01-1.48-.01-2.98-.03-2.58-.03-2.58-2.26-4.4-1.89-.32-1.89-.32-4.07-.3-.83-.02-1.67-.04-2.53-.05l-2.75-.03c-.92-.02-1.85-.03-2.81-.05-2.97-.05-5.93-.09-8.9-.13-2.97-.05-5.95-.09-8.92-.15-1.85-.03-3.7-.05-5.55-.08-6.36-.1-6.36-.1-7.47-1.21-.09-1.44-.12-2.89-.11-4.34v-2.83c0-.98.01-1.97.01-2.99 0-.9 0-1.81.01-2.74 0-3.39.01-6.77.03-10.16L895 394h58v-28c-2.61-2.61-4.44-2.24-7.99-2.27-.84 0-1.68.01-2.54.01-1.33 0-1.33 0-2.68-.01-2.93-.01-5.86 0-8.79 0h-6.09c-4.26 0-8.52 0-12.78.01-5.46.01-10.93 0-16.39-.01-4.2-.01-8.39 0-12.58 0h-6.05c-2.82-.01-5.63 0-8.45.01-.83 0-1.67-.01-2.53-.01-3.9.03-5.82.06-9.13 2.27Zm61 111v10h1v-10h-1Zm-17 11v12c2.96 1.48 5.84 1.35 9.12 1.56 1.29.09 2.57.17 3.89.26.99.06 1.97.12 2.99.18.03-1.44.05-2.87.06-4.31.01-.8.03-1.6.04-2.43 0-2.43 0-2.43-1.1-5.26h-14l-1-2Z" fill="#93EEB2"/><path d="M538.086 362.379c.63.53 1.26 1.07 1.91 1.62v2c.58.24 1.16.47 1.76.71 9.32 5.36 13.41 18.49 16.24 28.29 3.5 13.48 4.15 26.7 4.12 40.54v5c0 4.5-.01 9-.01 13.5-.01 4.71-.01 9.42-.01 14.14-.01 8.91-.01 17.83-.02 26.74-.02 10.15-.02 20.3-.03 30.46-.01 20.87-.02 41.75-.05 62.62l-13 1v11h-1v-11l-12 1v12c-2.39 1.2-3.91 1.14-6.58 1.16l-2.88.03c-1.03.01-2.06.01-3.13.01-1.05.01-2.11.02-3.19.02-2.24.01-4.47.02-6.71.02-3.43.01-6.85.04-10.28.07-2.17.01-4.33.02-6.5.02-1.03.01-2.06.02-3.12.04-.95-.01-1.91-.01-2.89-.01-1.26 0-1.26 0-2.55.01-2.67-.46-3.56-1.21-5.17-3.37-.29-2.7-.29-2.7-.18-5.69l.08-3.01c.03-.76.07-1.52.1-2.3-.7.01-1.41.02-2.14.04-10.31.09-20.56-.46-30.86-1.04-1.38-2.77-1.13-5-1.13-8.1 0-1.3-.01-2.6-.01-3.94v-4.36c0-1.52-.01-3.04-.01-4.57-.01-4.15-.01-8.29-.01-12.44 0-2.61-.01-5.21-.01-7.81-.01-9.09-.01-18.19-.01-27.28 0-8.43-.01-16.87-.03-25.3-.01-7.27-.02-14.53-.01-21.8 0-4.32-.01-8.65-.02-12.98-.16-69.63-.16-69.63 19.49-93.11 18.74-15.75 49.51-17.55 69.84-3.93Zm-69.53 14.37c-2.87 4.15-4.76 8.55-6.56 13.25-.36.9-.72 1.79-1.09 2.72-7.66 21.55-6.35 45.87-6.28 68.44.02 4.19.01 8.38.01 12.56 0 7 .01 14 .03 21 .02 8.09.02 16.18.02 24.26-.01 7.83 0 15.65.01 23.47v9.95c0 3.89.01 7.77.02 11.66.01 1.43.01 2.85.01 4.28-.01 1.94 0 3.88.01 5.82.01 1.08.01 2.17.01 3.29 0 2.72 0 2.72 2.25 4.55 2.66.18 5.2.23 7.86.2 1.16-.01 1.16-.01 2.34-.01 2.48-.01 4.95-.04 7.43-.06l5.03-.03c4.12-.02 8.23-.06 12.34-.1.01-1.25.02-2.5.04-3.79.09-11.76.2-23.51.3-35.27.06-6.05.11-12.09.16-18.14.05-5.83.1-11.66.16-17.49.02-2.23.04-4.45.05-6.68l.09-9.34c0-.93.01-1.86.02-2.82.07-6.35.07-6.35 1.18-7.47 1.7-.1 3.4-.13 5.1-.13 1.03 0 2.06 0 3.12-.01l3.28.02c1.09-.01 2.17-.01 3.29-.02 1.03.01 2.06.01 3.12.01h2.89c2.2.13 2.2.13 3.2 1.13.12 3.03.17 6.05.18 9.08 0 .95.01 1.9.02 2.89l.03 6.22c.02 3.29.04 6.57.07 9.85.07 9.33.13 18.66.18 28 .03 5.7.07 11.4.12 17.1.02 2.17.03 4.35.04 6.53.01 3.04.03 6.08.06 9.12v2.75c-.17 4.72-.17 4.72 2.3 8.46 2.66.18 5.2.23 7.86.2 1.16-.01 1.16-.01 2.34-.01 2.48-.01 4.95-.04 7.43-.06l5.03-.03c4.12-.02 8.23-.06 12.34-.1.07-20.37.13-40.74.16-61.1.01-9.46.04-18.92.07-28.38.03-8.26.05-16.51.06-24.77 0-4.36.01-8.72.03-13.08 1.03-45.32 1.03-45.32-18.75-84.67-8.92-8.18-19.75-9.36-31.38-9.37l-3.08-.08c-13.68-.05-25.83 5.57-34.55 16.2Z" fill="#93EFB2"/><path d="M458.04 661.18c5.21 2.18 7.74 10.21 9.9 15.07 22.9 57.2 21.58 156.21-.94 212.75-2.31 4.02-4.72 7.72-8 11-3.5-.36-6.16-2.01-9-4-3.62-5.79-5.62-12.36-7-19h3l-1-5h2c-.18-.95-.37-1.9-.56-2.87C446 866 446 866 447 864v-4h2c-.28-1.7-.28-1.7-.56-3.44-.15-1.17-.29-2.35-.44-3.56l1-1c.05-1.5.04-3 0-4.5s-.05-3 0-4.5l1-1c.09-1.42.11-2.84.1-4.25 0-.86-.01-1.71-.01-2.59l-.03-2.72c0-.9-.01-1.81-.01-2.73-.01-2.24-.03-4.47-.05-6.71h1v-2.43c0-27.57 0-27.57.02-30.83.01-3.53.03-7.06.04-10.58 0-1.53.01-3.05.02-4.58.01-2.19.01-4.39.02-6.59 0-1.31.01-2.63.01-3.99.24-2.88.24-2.88-1.11-4 .01-1.67.06-3.33.13-5 .06-6.97-.67-13.77-1.5-20.69-.19-1.58-.19-1.58-.39-3.2-1.21-11.01-1.21-11.01-4.24-21.61-3.84-9.6-3.69-18.72-.37-28.37.26-.8.53-1.59.81-2.41 6.42-18.17 6.42-18.17 13.6-17.54ZM249 767c8.92.99 16.83 2.25 22.99 9.27 5.68 8.96 7.5 18.27 7.29 28.74l-.03 3.13c-.18 11.91-.95 23.79-1.75 35.67-.22 3.29-.43 6.59-.64 9.88-.13 2.02-.26 4.04-.4 6.06-1.4 21.46-2.52 49.85 11.66 67.56 7.56 7.77 15.5 11.53 26.13 12.92 2.13.36 2.13.36 5.75 1.77 2.74 4.08 3.13 8.19 3 13-5.8.1-11.6.17-17.4.22-1.96.02-3.93.05-5.9.08-2.85.05-5.69.07-8.54.09l-2.62.06c-10.81.01-19.58-4.59-27.19-12.07-8.84-9.71-12.84-20.87-12.69-33.86v-3.05c0-3.29.02-6.59.05-9.88 0-2.3.01-4.59.01-6.89.01-6.02.04-12.04.07-18.06.03-6.16.05-12.31.06-18.47.04-12.05.09-24.11.15-36.17h1v-5h-1v-45ZM962.996 369.867c.81 0 1.61.01 2.44.01 1.21-.01 1.21-.01 2.44-.01 2.12.13 2.12.13 4.12 1.13l1 217h67v2l2 1-1 12c-12.5.03-25 .04-37.49.05l-17.42.03c-5.59.01-11.19.02-16.78.02-2.14 0-4.28 0-6.42.01-2.99.01-5.97.01-8.96.01-.89 0-1.79 0-2.71.01-6.1-.01-6.1-.01-7.22-1.13-.15-1.52-.25-3.05-.31-4.58-.07-1.4-.07-1.4-.13-2.82l-.12-2.97c-.04-.97-.08-1.95-.13-2.95-.47-10.78-.47-10.78 2.82-15.11 13.19-18.45 18.57-43.83 16.63-66.43-1.15-6.04-4.05-11.13-8.76-15.14-2.49-1-2.49-1-5.18-1.68-1.59-.44-3.18-.87-4.82-1.32l-1-12c1.49-.49 1.49-.49 3-1v-39h-2l-1-36 16-1c.06-2.08.13-4.16.19-6.31.06-2 .12-4.01.19-6.02l.12-4.2c.06-2.01.12-4.02.19-6.03.03-1.21.07-2.42.11-3.66.27-3.72.27-3.72 3.2-3.91ZM839.941 369.902l3.62.04 3.63.02c.93.01 1.85.03 2.81.04 1.3 2.61 1.13 4.52 1.14 7.44.01 1.16.02 2.32.02 3.51.01 1.28.01 2.55.01 3.87.01 1.35.02 2.71.02 4.06.02 2.92.03 5.85.04 8.77.01 4.64.04 9.29.06 13.93.07 13.21.13 26.42.19 39.63.02 7.29.06 14.58.1 21.87.02 3.84.04 7.69.05 11.54-1.27 49.54-1.27 49.54 20.12 92.33 10.96 9.97 21.68 13.73 36.25 15.05v2h5c-7.53 8.23-15.87 12.14-27.06 12.75l-2.26.12c-14.11.57-26.43-2.38-37.29-11.61-7.2-6.82-11.74-14.09-15.39-23.26-.5-1.1-.5-1.1-1.01-2.23-2.45-5.71-1.86-9.49-.31-15.36 5.83-22.22 5.78-45.09 5.79-67.9.01-4.08.03-8.15.05-12.23.04-7.67.06-15.34.08-23.01.04-13.81.09-27.61.16-41.42.02-4.84.03-9.67.04-14.51l.03-8.96c.01-1.39.01-2.77.01-4.16 0-1.89.01-3.77.02-5.66 0-1.06.01-2.11.01-3.2.19-3.52.49-3.34 4.07-3.46ZM303 366c2.22 1.02 2.22 1.02 4 2-.14.56-.28 1.12-.43 1.69-2.14 9.79-1.84 19.58-1.81 29.54 0 2.04-.01 4.08-.01 6.12 0 5.51 0 11.02.01 16.53.01 5.77.01 11.54.01 17.31 0 9.67.01 19.35.02 29.02.02 11.2.03 22.4.02 33.6 0 10.78.01 21.55.02 32.32v13.76c0 5.39.01 10.78.02 16.17v5.95c0 2.7.01 5.39.02 8.09-.01.79-.01 1.59-.01 2.4-.31 3.55-.31 3.55 1.14 6.5 1.41.16 2.83.25 4.25.32l2.59.12 2.72.12c.9.05 1.81.09 2.73.13 2.24.11 4.47.21 6.71.31v2l2 1-1 12c-6.96.02-13.92.04-20.88.05l-7.11.03c-3.4.01-6.8.01-10.19.02-1.07 0-2.14.01-3.24.01h-2.97c-1.3.01-1.3.01-2.63.01C277 603 277 603 276 602c-.14-1.54-.23-3.08-.28-4.62-.04-.94-.08-1.87-.11-2.84-.06-1.47-.06-1.47-.11-2.98-.07-1.93-.14-3.87-.22-5.81l-.09-2.61c-.06-2.19-.06-2.19-1.19-4.14h2l.79-2.19c1.24-2.89 2.74-5.22 4.52-7.81 10.32-16.07 13.76-36.19 14-55.06.05-1.13.05-1.13.09-2.28.08-7.05-2.33-11.91-6.52-17.47-3.43-2.61-6.53-3.5-10.67-4.51C276 489 276 489 274 487c-.2-2.38-.2-2.38-.12-5.12.01-.92.03-1.83.05-2.76.02-.7.05-1.4.07-2.12 2.48-.5 2.48-.5 5-1v-39l-5-2v-33c5.37-2.69 11.99-1 18-1v-33c4.28-2.14 6.32-2.33 11-2ZM710.941 369.902l3.62.04 3.63.02c.93.01 1.85.03 2.81.04 1.3 2.6 1.13 4.5 1.14 7.41.01 1.15.02 2.3.02 3.48.01 1.27.01 2.54.01 3.85.01 1.35.02 2.69.02 4.04.02 2.9.03 5.81.04 8.72.01 4.62.04 9.24.06 13.87.07 13.15.13 26.31.19 39.46.02 7.26.06 14.52.1 21.77.02 3.83.04 7.66.05 11.49.04 14.66.21 29.27 1.28 43.9.07 1.08.15 2.16.23 3.27 1.5 18.42 5.7 35.67 19.8 48.49 10.8 8.96 20.57 11.54 34.46 11.87.79.02 1.59.05 2.4.07.71.01 1.43.02 2.16.04 2.34.31 3.99 1.11 6.04 2.27-13.69 10.92-28.02 14.28-45.36 12.69-11.34-1.38-18.82-4.6-27.64-11.69-.87-.6-1.73-1.2-2.63-1.81-4.35-4.01-8.35-9.26-9.37-15.19.33-1.91.33-1.91.92-4.05 1.79-8.27 1.38-16.74 1.38-25.16l.03-5.82c.02-4.16.03-8.32.03-12.48.02-6.58.04-13.15.07-19.73.04-10.39.07-20.78.1-31.17.05-18.63.11-37.27.19-55.91l.06-19.62c.01-4.06.02-8.12.04-12.17 0-1.89.01-3.78.01-5.66 0-2.57.01-5.14.02-7.7v-2.29c.04-6.21.04-6.21 4.09-6.34ZM795 797h24c2.66 2.66 2.26 3.92 2.28 7.63l.03 3.63c0 1.33.01 2.67.01 4l.03 4.2c.03 3.81.04 7.61.05 11.42.02 3.97.05 7.95.07 11.92.05 7.53.09 15.06.12 22.59.04 8.57.09 17.14.14 25.71.1 17.63.19 35.27.27 52.9 1.02-.01 2.04-.01 3.09-.02 3.78-.01 7.55-.03 11.33-.03l4.9-.03c2.35-.01 4.7-.01 7.05-.02.73 0 1.46-.01 2.22-.01 5.18 0 5.18 0 7.41 1.11v13h-66c-1.35-2.7-1.34-5.12-1.56-8.12-.09-1.1-.17-2.2-.26-3.33-.06-.84-.12-1.68-.18-2.55h5V797Z" fill="#444746"/><path d="M581 367c-.14.54-.28 1.09-.43 1.65-1.36 5.58-1.85 10.75-1.81 16.48 0 1.31 0 1.31-.01 2.65 0 2.9.01 5.8.02 8.7v6.27c0 5.66.01 11.32.03 16.97.01 5.92.01 11.84.01 17.75.01 11.2.03 22.4.05 33.6.02 12.75.03 25.5.04 38.26.02 26.22.06 52.45.1 78.67l1.7-.03c2.54-.04 5.07-.07 7.61-.09l2.67-.06c.85 0 1.7-.01 2.57-.02l2.37-.03C598 588 598 588 601 590c.29 2.82.29 2.82.19 6.12l-.08 3.33c-.04.84-.07 1.68-.11 2.55-2.44 1.22-4 1.12-6.73 1.11h-2.97c-1.06 0-2.12-.01-3.21-.01-1.63 0-1.63 0-3.29-.01-3.48 0-6.95-.01-10.42-.03-2.36 0-4.71-.01-7.06-.01-5.77-.01-11.55-.03-17.32-.05l-1-14c3.01-1 5.04-1.1 8.19-1.06.9.01 1.8.02 2.73.02l2.08.04c-.06-21.69-.14-43.38-.24-65.07-.04-10.07-.08-20.14-.11-30.22-.02-8.79-.05-17.57-.1-26.36-.02-4.65-.04-9.29-.05-13.94.7-34.41.7-34.41-8.25-67.22-1.4-3.56-1.73-4.7-.25-8.19 3.48-5.84 7.79-8.31 14.17-10.35 4.53-1.04 9.54-1.8 13.83.35Z" fill="#434645"/><path d="m910 818 2 3c-.34.62-.68 1.23-1.02 1.87-10.52 19.97-6.74 45.53-.56 66.5 4.41 14 11.14 24.41 21.58 34.63l2.33 2.43c13.59 13.38 31.59 19.36 50.35 19.89l2.13.06 6.63.18c1.51.05 3.02.09 4.53.13 3.67.11 7.35.21 11.03.31-3.3 3.46-6.57 5.56-10.88 7.56-.58.29-1.16.58-1.75.88-10.93 5.14-22.83 6.1-34.75 6l-3.83-.02c-22.88-.4-41.78-8.98-57.79-25.42-3.23-3.85-6.23-7.8-9-12-.42-.52-.85-1.04-1.28-1.57-5.73-8.11-4.34-18.1-4.21-27.56.01-1.96.02-3.92.02-5.88.02-5.13.07-10.27.13-15.4.05-5.25.07-10.5.1-15.75.05-10.28.13-20.56.24-30.84.99.5.99.5 2 1 .4-.44.8-.88 1.21-1.34 5.54-5.14 12.44-7.13 19.79-7.66l1-1Z" fill="#444746"/><path d="M466 368c0 3.7-.97 4.55-3.12 7.5-7.56 11.57-10.68 25.89-11.88 39.5-.08.87-.16 1.74-.25 2.63-.76 8.85-.89 17.66-.86 26.53v4.74c0 4.24 0 8.48.01 12.73 0 4.45.01 8.9.01 13.35 0 8.4.01 16.81.02 25.22.01 9.58.01 19.16.02 28.74.01 19.68.03 39.37.05 59.06l1.7-.03c2.54-.04 5.07-.07 7.61-.09l2.67-.06c.85 0 1.7-.01 2.57-.02l2.37-.03C469 588 469 588 472 590c.36 2.53.36 2.53.31 5.5 0 .98-.01 1.96-.01 2.97C472 601 472 601 470 603c-2.1.24-2.1.24-4.73.23h-2.97l-3.21-.03c-1.09-.01-2.17-.01-3.29-.01-3.48-.01-6.95-.04-10.42-.07-2.36-.01-4.71-.01-7.06-.02-5.77-.02-11.55-.06-17.32-.1l-1-14c3-1 3-1 14-1V386h2c.09-.58.17-1.16.26-1.75 1.8-5.45 7.82-9.19 12.64-11.84 5.8-2.68 10.67-4.59 17.1-4.41Z" fill="#434645"/><path d="M971 358c6.94-.03 13.88-.04 20.83-.05l7.08-.03c3.39-.01 6.79-.01 10.18-.02 1.06 0 2.12-.01 3.21-.01h2.97c.87-.01 1.74-.01 2.63-.01 2.1.12 2.1.12 4.1 1.12v186c22.28.5 22.28.5 45 1l2 1v42c-4.41.19-8.83.37-13.38.56-1.39.06-2.78.13-4.21.19-1.09.04-2.18.08-3.31.13-1.12.05-2.24.09-3.39.14C1042 590 1042 590 1040 589c-2.12-.12-4.25-.18-6.38-.21l-1.98-.03c-2.16-.03-4.33-.05-6.49-.08l-4.5-.06-11.85-.15c-4.02-.05-8.05-.11-12.08-.16-7.91-.11-15.81-.21-23.72-.31-1.69-3.37-1.15-7.19-1.16-10.9 0-.93-.01-1.86-.01-2.82-.02-3.15-.03-6.29-.04-9.44 0-2.24-.01-4.49-.03-6.74l-.06-18.34c-.03-6.39-.05-12.77-.08-19.16l-.12-32.16c-.04-11.05-.08-22.09-.13-33.14 0-.68 0-1.36-.01-2.06-.01-3.41-.02-6.83-.04-10.24-.11-28.33-.22-56.67-.32-85Zm8.32 7c-2.12 3.22-1.73 6.7-1.69 10.43-.01.87-.01 1.75-.02 2.64-.01 2.93.01 5.86.02 8.79 0 2.1-.01 4.19-.01 6.29-.01 5.7 0 11.4.01 17.1.01 5.95.01 11.91.01 17.87-.01 10 .01 20 .02 30 .02 11.58.03 23.15.02 34.73 0 11.12 0 22.24.01 33.36.01 4.74.01 9.48.01 14.22-.01 5.58 0 11.16.02 16.74v6.15c0 2.79.01 5.58.02 8.37 0 .82-.01 1.65-.01 2.49-.14 4.38-.14 4.38 2.27 7.82 2.62.19 5.13.25 7.75.23h2.43c2.65 0 5.3-.02 7.95-.03 1.84-.01 3.67-.01 5.51-.01 4.84-.01 9.67-.03 14.51-.05 4.93-.02 9.87-.03 14.8-.04 9.68-.02 19.37-.06 29.05-.1.05-3.95.09-7.9.11-11.85.01-2.01.04-4.02.07-6.02 0-1.26.01-2.51.02-3.81l.03-3.52c.06-2.94.06-2.94-2.23-4.8-1.92-.32-1.92-.32-4.13-.3-.85-.02-1.7-.04-2.58-.05l-2.79-.03c-1.41-.02-1.41-.02-2.86-.05-3.02-.05-6.05-.09-9.08-.13-3.02-.05-6.04-.09-9.07-.15-1.88-.03-3.76-.05-5.65-.08l-2.58-.04-2.28-.03C1017 551 1017 551 1014 550l1-2c.1-2.39.14-4.75.13-7.14.01-1.11.01-1.11.01-2.25.01-2.5.01-5.01.01-7.51 0-1.79 0-3.58.01-5.37 0-4.87.01-9.75.01-14.62 0-4.06 0-8.12.01-12.18 0-9.58.01-19.15.01-28.73-.01-9.89.01-19.79.02-29.68.01-8.48.02-16.97.02-25.45 0-5.07 0-10.14.01-15.21.01-4.77.01-9.54 0-14.31 0-1.75.01-3.5.01-5.26.01-2.38 0-4.77 0-7.15 0-.7.01-1.41.01-2.13.07-3.95.07-3.95-2.26-7.01-4.54-.4-9.1-.33-13.66-.32-2.27.01-4.53-.02-6.8-.04h-4.32c-1.97-.01-1.97-.01-3.97-.01-3.1.13-3.1.13-4.93 1.37Z" fill="#93EFB2"/><path d="M354 472h2c.16.74.32 1.47.48 2.23 1.45 6.06 2.52 9.92 7.52 13.77 3.1 1.55 5.58 1.29 9 1 4.47-2.44 5.87-5.37 7.42-10 .58-1.99 1.09-3.99 1.58-6h2c0 .58.01 1.16.01 1.76.11 14.13.21 28.26.33 42.39.05 6.83.11 13.66.16 20.5.04 6.58.1 13.17.15 19.76l.06 7.56c.02 3.51.05 7.03.08 10.54l.02 3.19.03 2.89c.01.83.01 1.66.02 2.52-.07 1.9-.07 1.9 1.14 2.89 1.41.16 2.83.25 4.25.32l2.59.12 2.72.12c.9.05 1.81.09 2.73.13 2.24.11 4.47.21 6.71.31v2c.99.5.99.5 2 1-.5 5.94-.5 5.94-1 12-6.96.02-13.92.04-20.88.05l-7.11.03c-3.4.01-6.8.01-10.19.02-1.07 0-2.14.01-3.24.01h-2.97c-1.3.01-1.3.01-2.63.01C357 603 357 603 356 602c-.23-2.02-.41-4.04-.56-6.06-.09-1.11-.17-2.21-.26-3.35-.09-1.28-.09-1.28-.18-2.59h-1V472ZM547 817l2 3c-.47 1.6-.95 3.19-1.46 4.78-1.16 4.78-.88 9.76-.85 14.66 0 1.19.01 2.38.01 3.6.41 30.2 5.63 61.09 27.64 83.32 14.78 13.9 30.6 19.42 50.66 20.14 11.66.42 11.66.42 17 1.5-16.37 13.89-35.52 13.91-56 13-8.13-.77-15.84-3.08-23-7-.84-.45-1.67-.89-2.54-1.36-18.33-10.68-28.22-27.26-35.46-46.64l-1-2c1.1-2.92 2.27-5.76 3.5-8.62 7.81-18.97 12.44-38.04 15.13-58.35C543 835 543 835 544 834c.02-1.56-.01-3.13-.06-4.69-.05-4.17.37-7.43 2.06-11.31l1-1Z" fill="#444746"/><path d="M461 655c2.5 1.94 2.5 1.94 5 5 .47.56.95 1.12 1.43 1.7 10.51 13.87 12.63 33.69 15.57 50.3.23 1.25.45 2.5.68 3.79 3.26 20.3 3.65 41.02 3.58 61.52-.01 3.69 0 7.37.01 11.06.02 20.44-.78 40.93-4.15 61.13-.17 1.07-.34 2.14-.52 3.24-6.77 40.87-6.77 40.87-18.41 51.14-3.86 2.57-5.64 2.85-10.19 2.12-8.42-4.3-12.63-11.1-15.71-19.79-5.21-16.46-8.23-33.23-10-50.38-.16-1.61-.34-3.21-.53-4.82-.65-5.57-1.06-11.13-1.31-16.73-.05-.91-.09-1.81-.13-2.75-.43-9.99-.48-19.97-.44-29.97v-2.85c.27-97.85.27-97.85 21.6-119.19 4.33-3.75 7.78-5.21 13.52-4.52Zm-7.56 7.6c-2.55 2.51-3.94 4.63-5.5 7.84-.7 1.39-.7 1.39-1.41 2.81-4.34 10.02-6.45 20.58-8.15 31.31-.22 1.3-.43 2.6-.65 3.95-1.49 9.26-2.6 18.53-3.37 27.88C434 740 434 740 433 743c-4.93 40.4-4.93 40.4 1 79 .23 1.81.42 3.62.58 5.44 2.15 37.39 2.15 37.39 17.42 70.56 2.14 1.27 3.44 2 5.94 2 6.06-2.94 8.58-9.79 10.74-15.74 19.89-57.73 22.7-155.24-2.24-211.38-3.01-6.88-3.01-6.88-8.28-11.83-2.36-.25-2.36-.25-4.72 1.55Z" fill="#93EFB2"/><path d="M772 370c2.12-.08 4.25-.14 6.38-.19 1.18-.03 2.36-.07 3.58-.1 1.51.14 1.51.14 3.04.29 2.22 3.33 2.25 4.35 2.25 8.23 0 1.08.01 2.17.01 3.28l-.02 3.61c0 1.26.01 2.51.01 3.8 0 3.45 0 6.9-.01 10.35-.01 3.64-.01 7.27-.01 10.91 0 6.13-.01 12.26-.02 18.39-.02 7.01-.03 14.03-.02 21.04 0 7.53-.01 15.07-.02 22.6v6.4c-.01 14.09-.11 28.17-.59 42.25-.04 1.08-.08 2.17-.11 3.28-.89 22.66-.89 22.66-6.47 30.86-1.89-.62-1.89-.62-4-2-1.01-2.72-1.01-2.72-1.69-6.06-.23-1.09-.46-2.17-.7-3.29-1.59-9.51-1.75-18.83-1.72-28.45v-4.76c0-4.29 0-8.58.01-12.86 0-4.49.01-8.98.01-13.47 0-8.49.01-16.98.02-25.46.01-9.67.01-19.34.02-29.01.01-19.88.03-39.76.05-59.64ZM628 476h2c.24.98.47 1.95.72 2.96 2.25 9.28 4.52 18.56 6.79 27.84 1.17 4.77 2.34 9.54 3.49 14.31 1.12 4.62 2.25 9.24 3.39 13.85.43 1.75.85 3.49 1.27 5.24C652 568.91 652 568.91 671 590l3 1v2l3 1c-3.75 5.85-7.19 10-14 12-8.63 1.59-16.32 1.39-24.19-2.62-5.88-4.97-11.13-11.78-12.08-19.62-.1-2.6-.11-5.19-.09-7.79v-2.98c-.01-3.24.01-6.47.03-9.7 0-2.26.01-4.52.01-6.78 0-4.72.02-9.45.04-14.18.03-6.04.04-12.09.04-18.14l.03-13.98c0-2.23.01-4.46.01-6.69.01-3.12.02-6.24.04-9.36v-2.77c.04-5.22.41-10.23 1.16-15.39Z" fill="#444746"/><path d="M499 487c2.15-.03 4.29-.05 6.44-.06 1.19-.01 2.39-.03 3.62-.04 2.94.1 2.94.1 3.94 1.1.13 3.1.19 6.19.21 9.29l.03 2.96c.03 3.24.05 6.48.08 9.72l.06 6.72.15 17.73c.05 6.03.11 12.06.16 18.08.11 11.83.21 23.67.31 35.5l1.7-.03c2.54-.04 5.07-.07 7.61-.09l2.67-.06c.85 0 1.7-.01 2.57-.02l2.37-.03C533 588 533 588 536 590c.29 2.82.29 2.82.19 6.12l-.08 3.33c-.04.84-.07 1.68-.11 2.55-2.41 1.21-3.93 1.13-6.62 1.13-.96 0-1.91.01-2.9.01-1.55 0-1.55 0-3.14-.01-1.59 0-1.59 0-3.21.01-2.25 0-4.49-.01-6.73-.01-3.45 0-6.9 0-10.35.01-2.17 0-4.35-.01-6.52-.01-1.56.01-1.56.01-3.15.01-.95 0-1.91-.01-2.89-.01h-2.56C486 603 486 603 485 602c-.23-2.18-.41-4.37-.56-6.56-.09-1.2-.17-2.4-.26-3.63L484 589c3.15-1.05 5.39-1.1 8.69-1.06.99.01 1.99.02 3.01.02.76.02 1.52.03 2.3.04 0-1.24 0-2.47-.01-3.74-.02-11.63-.03-23.26-.04-34.88-.01-5.98-.01-11.95-.03-17.93-.01-5.77-.01-11.53-.01-17.29-.01-2.21-.01-4.41-.02-6.61v-9.24c-.01-.91-.01-1.83-.01-2.78v-4.74C498 489 498 489 499 487Z" fill="#434645"/><path d="M808.25 661.625c.91.12 1.82.25 2.75.38 6.51 13.81 8.39 27.51 9.19 42.62l.24 4.19c.45 8.18.77 16.36.82 24.56.01 1.29.01 1.29.03 2.61-.03 5.77-.03 5.77-2.28 8.02-2.21.25-2.21.25-4.94.26-.97 0-1.95.01-2.96.01l-3.1-.03-3.1.03c-.98 0-1.96-.01-2.96-.01-.9 0-1.8 0-2.73-.01-2.21-.25-2.21-.25-4.21-2.25-.2-2.65-.28-5.2-.27-7.84v-2.4c-.01-2.57 0-5.13.02-7.7 0-.87.01-1.74.01-2.64.07-15.56.77-30.5 4.11-45.74.15-.69.3-1.38.46-2.08 2.74-11.27 2.74-11.27 8.92-11.98Z" fill="#444746"/><path d="M509 385c8.22 7.5 9.37 20.53 10 31 .15 5.22.14 10.43.13 15.65-.01 2.44 0 4.87.01 7.31 0 1.55-.01 3.09-.01 4.64 0 .73.01 1.46.01 2.21-.03 5.08-.03 5.08-1.14 6.19-3.97.25-7.96.19-11.94.19-1.68.02-1.68.02-3.4.03-1.07.01-2.15.01-3.25.01-1.48.01-1.48.01-3 .01C494 452 494 452 492 450c-.26-2.6-.26-2.6-.27-5.91 0-1.21 0-2.42-.01-3.66l.03-3.93c.01-1.32.01-2.63.02-3.99.39-36.8.39-36.8 9.23-46.51 3.02-1.01 4.86-1.37 8-1Z" fill="#93EFB2"/><path d="M992 661c5.81 4.15 8.02 10.83 9.6 17.57.6 5.12.55 10.22.52 15.37v3.36c-.04 8.27-.41 16.46-1.12 24.7.84-.01 1.68-.01 2.54-.02 3.1-.01 6.21-.03 9.31-.03 2.01-.01 4.02-.03 6.02-.04 1.89 0 1.89 0 3.81-.01 1.74-.01 1.74-.01 3.52-.01 2.8.11 2.8.11 4.8 1.11-1.82 4.63-4.83 6.93-9.23 9.11-2.56 1.1-5.12 2.03-7.77 2.89-.76.26-1.52.52-2.3.79-3.69.88-5.8.72-9.13-1.18-15.11-12.35-23.73-33.22-25.86-52.15-.29-7.19 1.41-15 6.29-20.46 3.36-1.12 5.48-1.42 9-1ZM628 370h28c1.79 3.59 2.25 4.55 2.24 8.24 0 .84.01 1.68.01 2.54-.01.91-.02 1.82-.02 2.76v2.93c0 3.19-.02 6.38-.03 9.58-.01 2.21-.01 4.42-.01 6.64-.01 5.82-.03 11.65-.05 17.48-.02 5.94-.03 11.89-.04 17.83-.02 11.67-.06 23.33-.1 35-.5-.99-.5-.99-1-2h-2c-.2-.79-.4-1.59-.61-2.4-1.9-7.58-3.81-15.15-5.73-22.72l-2.94-11.67c-7.26-30.56-7.26-30.56-17.06-60.35C628 372 628 372 628 370Z" fill="#444746"/><path d="M813 656c10.6 11.08 11.98 26.79 13.12 41.38.09 1.07.17 2.15.26 3.26 1.12 16.09.79 32.24.62 48.36-3.03 1.52-6.2 1.18-9.53 1.2-.74.01-1.49.01-2.25.02-1.58.01-3.16.02-4.73.02-2.41.01-4.83.04-7.24.07-1.53.01-3.06.01-4.59.02l-2.19.04c-2.85-.02-4.96-.06-7.43-1.57-1.4-2.41-1.41-4.09-1.4-6.87 0-1.05-.01-2.09-.01-3.17l.06-3.45.03-3.58c.81-56.62.81-56.62 11.22-72.73 4.31-4.18 8.37-4.96 14.06-3Zm-10.24 8.52c-1.85 3.67-3.02 7.18-3.88 11.17-.17.75-.33 1.5-.5 2.27-3.22 15.33-3.57 30.49-3.63 46.1-.01.87-.01 1.74-.02 2.63-.01 2.49 0 4.98 0 7.47 0 .76 0 1.52-.01 2.31-.1 4.22-.1 4.22 2.28 7.53 2.29.31 2.29.31 4.94.27h2.96c1.02 0 2.05-.01 3.1-.02 1.02.01 2.05.02 3.1.02h2.96c1.35-.01 1.35-.01 2.73-.01 2.42-.05 2.42-.05 4.21-2.26.21-2.91.28-5.71.25-8.62-.01-.91-.01-1.82-.02-2.75-.11-7.98-.47-15.95-.92-23.92-.12-2.03-.23-4.05-.33-6.08-.86-13.69-3.09-26.13-8.98-38.63-4.1-.56-5.42-.65-8.24 2.52Z" fill="#93EFB2"/><path d="M253.031 667.883c7.15.7 14.77 1.64 19.86 7.17 5.3 7.65 7.08 14.69 6.11 23.95-2 9.12-7.42 14.38-15.08 19.34-4.57 2.52-8.72 3.38-13.92 3.66-1-1-1-1-1.1-4.35.01-1.38.02-2.77.04-4.15 0-.71.01-1.41.01-2.13.01-1.79.03-3.58.05-5.37 0-1.43-.02-2.87-.03-4.3-.04-3.87-.06-7.75-.08-11.62-.01-1.68-.02-3.36-.04-5.03-.03-2.41-.04-4.83-.05-7.24l-.03-2.28c0-1.84.11-3.69.23-5.53 2-2 2-2 4.03-2.12Z" fill="#444746"/><path d="M243 661c12.91-.5 24.43 1.17 34.21 10.17 6.92 7.06 8.29 14.69 8.29 24.22-.27 9.44-3.94 16.54-10.75 23.05C266.09 725.38 255.29 730 244 730v-2h-2c-.02-8.29-.04-16.59-.05-24.88-.01-3.85-.01-7.7-.03-11.55-.01-3.72-.01-7.43-.01-11.15-.01-1.41-.01-2.83-.02-4.25v-5.95c-.01-1.13-.01-2.27-.01-3.43C242 664 242 664 243 661Zm6 9c-.29 2.26-.29 2.26-.23 4.91V678l.03 3.35c.01 1.13.01 2.26.01 3.42.01 3.62.04 7.24.07 10.85.01 2.45.01 4.9.02 7.35.02 6.01.06 12.02.1 18.03 6.85 1.55 11.62-.89 17.47-4.55 6.15-4.47 11.08-9.78 12.53-17.45.9-9.19-1.14-15.93-5.62-23.88-5.69-5.08-12.94-6.51-20.35-7.24-2.26-.09-2.26-.09-4.03 2.12Z" fill="#93EFB2"/><path d="M901 500c4.71-.12 8.54-.17 13 1.5.76.28 1.53.56 2.31.84.84.33.84.33 1.69.66 4.48 38.61 4.48 38.61-4 51-1.94 1.5-1.94 1.5-4 2-2.12-.5-2.12-.5-4-2-2.51-6.39-2.95-12.91-3.62-19.69-.14-1.28-.27-2.57-.4-3.89-.99-10.18-1.32-20.21-.98-30.42ZM233 500c6.07-.2 11.15.3 17 2 1.22 6.38 1.19 12.68 1.19 19.15 0 2.08.02 4.16.03 6.24.09 20.07.09 20.07-5.22 26.61-2.19 1.31-2.19 1.31-4 2-2.87-1.68-3.88-2.66-5.01-5.84-1.68-8.63-2.67-17.13-3.18-25.91-.08-1.24-.16-2.47-.25-3.75-.43-6.84-.68-13.64-.56-20.5ZM376 366l9 1c-1.52 4.59-3.05 9.17-4.65 13.73-4.25 12.28-7.56 24.59-10.35 37.27l-1-4h-2c-.13-.54-.26-1.09-.4-1.65-3.37-14.09-3.37-14.09-7.9-27.84-.84-3.01-1.01-5.41-.7-8.51 3.27-4.83 8.71-6.96 14.08-8.65C374 367 374 367 376 368v-2ZM504 392h3c8.38 15.45 6.3 36.03 6 53-2.12.03-4.25.05-6.38.06-1.18.01-2.36.03-3.58.04C500 445 500 445 498 444c-.9-38.2-.9-38.2 6-52ZM233 401c4.24-.02 8.47-.04 12.71-.05l4.32-.03c2.07-.01 4.14-.01 6.21-.02 1.25 0 2.49-.01 3.78-.01C263 401 263 401 265 402v13h-31c-1.38-2.76-1.1-5.05-1.06-8.12.01-1.1.02-2.2.02-3.33.02-.84.03-1.68.04-2.55ZM901 401c4.08-.02 8.15-.04 12.23-.05l4.15-.03c2-.01 3.99-.01 5.98-.02 1.2 0 2.4-.01 3.64-.01 3 .11 3 .11 6 1.11l-1 13c-4.24.07-8.47.13-12.71.16-1.44.02-2.88.04-4.32.07-2.07.03-4.14.05-6.21.06-1.25.02-2.49.03-3.78.05-.98-.11-1.97-.22-2.98-.34-2.02-3.03-2.26-3.61-2.19-7 .01-.68.02-1.36.02-2.06C900 404 900 404 901 401ZM233 476a1035 1035 0 0 1 7.88-.06l2.26-.03c5.63-.02 5.63-.02 7.86 1.09.41 2.5.41 2.5.62 5.56.08 1.01.15 2.03.23 3.07.05.78.1 1.56.15 2.37-3.7 2.38-6.93 2.21-11.25 2.12-1.26-.01-2.53-.03-3.83-.05-.96-.02-1.93-.05-2.92-.07-1.38-2.76-1.1-5.05-1.06-8.12.01-1.1.02-2.2.02-3.33.02-.84.03-1.68.04-2.55ZM901 476c2.65-.03 5.29-.05 7.94-.06l2.28-.03c1.93-.01 3.86.04 5.78.09 1.74 1.74 1.37 4.19 1.56 6.56.13 1.52.13 1.52.26 3.07.06.78.12 1.56.18 2.37-3.68 2.45-5.68 2.3-10.06 2.31-1.88.03-1.88.03-3.79.05-1.56-.18-1.56-.18-3.15-.36-2.11-3.16-2.25-3.95-2.19-7.56.01-.79.02-1.57.02-2.38C900 478 900 478 901 476Z" fill="#444746"/><path d="M1061 555h3v23h-3v-23Z" fill="#80CB98"/><path d="m547 817 2 3c-.68 2.92-.68 2.92-1.88 6.19-.38 1.08-.77 2.17-1.17 3.29-.47 1.25-.47 1.25-.95 2.52h-1c-.18-5.2-.03-9.11 2-14l1-1Z" fill="#4A564F"/><path d="M249 667c2.06.44 2.06.44 4 1l-3 2c-.51 2.61-.51 2.61-.51 5.66-.04 1.13-.07 2.25-.11 3.4-.02 1.18-.04 2.35-.07 3.56-.03 1.19-.07 2.37-.1 3.59-.08 2.93-.15 5.86-.21 8.79h-1c-.03-4.48-.05-8.96-.06-13.44l-.03-3.87c0-1.22 0-2.43-.01-3.69 0-1.12-.01-2.25-.01-3.41C248 668 248 668 249 667Z" fill="#7DC795"/><path d="M794 722h1c.03.59.05 1.18.08 1.79.11 2.67.23 5.35.36 8.02l.12 2.82.12 2.7c.04.82.08 1.65.11 2.49.14 2.36.14 2.36 1.21 5.18l-3-1v-22Z" fill="#81CD9A"/><path d="M274 583h1v17h-1v-17ZM354 591h1v9h-1v-9ZM450 766h1v7h-1v-7ZM450 814h1v5h-1v-5ZM942 420l1 4ZM942 404l1 4Z" fill="#444746"/></svg>